<?xml version="1.0" standalone="no"?> 
<!DOCTYPE svg PUBLIC "-//W3C//DTD SVG 1.1//EN" "http://www.w3.org/Graphics/SVG/1.1/DTD/svg11.dtd" >
<svg xmlns="http://www.w3.org/2000/svg">
<defs>
  <font id="myicons" horiz-adv-x="256">
    <font-face font-family="myicons"
      units-per-em="256" ascent="256"
      descent="0" />
    <missing-glyph horiz-adv-x="0" />
    <glyph glyph-name="ic_3d_rotation_48px"
      unicode="&#xEA01;"
      horiz-adv-x="256" d=" M80.16 26.8266666666667C45.3333333333333 43.36 20.32 77.2266666666667 16.5333333333333 117.3333333333334H0.5333333333333C5.9733333333333 51.6266666666667 60.9066666666667 0 128 0C130.4 0 132.6933333333333 0.2133333333333 135.04 0.3733333333333L94.4 41.0666666666667L80.16 26.8266666666667zM89.6533333333333 96.4266666666667C87.6266666666667 96.4266666666667 85.76 96.6933333333334 84.0533333333333 97.3333333333333C82.4 97.92 80.96 98.7733333333333 79.7866666666667 99.84C78.6133333333334 100.9066666666667 77.7066666666667 102.24 77.0666666666667 103.7333333333334C76.4266666666667 105.28 76.1066666666667 106.9333333333333 76.1066666666667 108.7466666666667H62.24C62.24 104.9066666666667 62.9866666666667 101.5466666666667 64.48 98.6133333333334C65.9733333333334 95.68 67.9466666666667 93.2266666666667 70.4533333333334 91.3066666666667C72.96 89.3333333333333 75.84 87.8933333333334 79.1466666666667 86.88C82.4533333333334 85.8133333333333 85.8666666666667 85.3333333333333 89.4933333333333 85.3333333333333C93.44 85.3333333333333 97.12 85.8666666666667 100.5333333333333 86.9333333333333C103.9466666666667 88 106.88 89.6 109.3866666666667 91.68S113.8133333333333 96.32 115.2533333333333 99.36C116.64 102.4 117.3866666666667 105.8666666666667 117.3866666666667 109.76C117.3866666666667 111.84 117.12 113.8133333333334 116.64 115.7333333333334C116.1066666666667 117.6533333333333 115.3066666666667 119.4666666666667 114.24 121.1733333333334C113.12 122.88 111.68 124.3733333333333 109.92 125.76C108.16 127.0933333333334 105.9733333333333 128.2133333333334 103.4666666666667 129.12C105.6 130.08 107.4666666666667 131.2533333333334 109.0666666666667 132.64C110.6666666666666 134.0266666666667 112 135.52 113.0666666666667 137.0666666666667C114.1333333333333 138.6666666666667 114.9333333333333 140.2666666666667 115.4666666666667 141.9733333333334C116 143.68 116.2666666666667 145.3866666666667 116.2666666666667 147.04C116.2666666666667 150.9333333333333 115.6266666666667 154.3466666666667 114.3466666666667 157.28C113.0666666666667 160.2133333333334 111.2533333333333 162.6666666666667 108.9066666666667 164.64C106.56 166.6133333333334 103.7866666666667 168.1066666666667 100.48 169.12C97.0666666666667 170.1866666666667 93.44 170.6666666666667 89.4933333333333 170.6666666666667C85.6533333333333 170.6666666666667 82.08 170.08 78.8266666666667 168.96C75.5733333333333 167.84 72.8 166.24 70.4533333333333 164.2133333333334C68.1066666666667 162.1866666666667 66.2933333333333 159.7866666666667 64.96 157.0133333333333C63.6266666666667 154.24 62.9866666666666 151.2 62.9866666666666 147.9466666666667H76.8533333333333C76.8533333333333 149.76 77.1733333333333 151.36 77.8133333333333 152.7466666666667C78.4533333333333 154.1866666666667 79.36 155.4133333333334 80.48 156.3733333333333C81.6 157.3866666666667 82.9866666666666 158.1866666666667 84.5333333333333 158.72C86.08 159.2533333333333 87.7866666666666 159.5733333333333 89.6 159.5733333333333C93.8666666666666 159.5733333333333 97.0133333333333 158.4533333333333 99.0933333333333 156.2666666666667C101.1733333333333 154.08 102.1866666666666 150.9866666666667 102.1866666666666 147.04C102.1866666666666 145.12 101.92 143.4133333333333 101.3333333333333 141.8666666666667C100.7466666666666 140.32 99.8933333333333 138.9866666666667 98.72 137.8666666666667C97.5466666666666 136.7466666666667 96.0533333333333 135.8933333333333 94.3466666666666 135.2533333333333C92.5866666666666 134.6133333333334 90.5066666666666 134.2933333333334 88.16 134.2933333333334H79.9466666666666V123.36H88.16C90.5066666666666 123.36 92.64 123.0933333333333 94.5066666666666 122.56C96.3733333333333 122.0266666666667 97.9733333333333 121.2266666666667 99.3066666666666 120.0533333333334C100.64 118.9333333333333 101.6533333333333 117.4933333333334 102.4 115.7866666666667C103.0933333333333 114.08 103.4666666666666 112.0533333333333 103.4666666666666 109.7066666666667C103.4666666666666 105.3866666666667 102.24 102.08 99.7333333333333 99.7866666666667C97.3333333333333 97.5466666666667 93.9733333333333 96.4266666666667 89.6533333333333 96.4266666666667zM180.96 159.6266666666667C177.6 163.1466666666667 173.5466666666667 165.8666666666667 168.8533333333334 167.7866666666667C164.1066666666667 169.7066666666667 158.9333333333334 170.6666666666667 153.2266666666667 170.6666666666667H128V85.3333333333333H152.48C158.4 85.3333333333333 163.7333333333333 86.2933333333333 168.5866666666667 88.2133333333333C173.44 90.1333333333333 177.5466666666667 92.8533333333333 180.96 96.3733333333333C184.3733333333333 99.8933333333333 187.04 104.16 188.8533333333333 109.12C190.72 114.08 191.6266666666667 119.68 191.6266666666667 125.8666666666667V130.08C191.6266666666667 136.2666666666667 190.6666666666667 141.8133333333333 188.8 146.8266666666667C186.9333333333333 151.84 184.32 156.1066666666667 180.96 159.6266666666667zM176.7466666666667 125.8133333333333C176.7466666666667 121.3866666666667 176.2666666666667 117.3333333333334 175.2 113.8133333333333C174.1866666666667 110.24 172.6933333333334 107.2533333333333 170.6666666666667 104.8C168.64 102.3466666666667 166.1333333333334 100.48 163.0933333333334 99.1466666666667C160.0533333333334 97.8666666666667 156.5333333333334 97.1733333333334 152.48 97.1733333333334H142.8266666666667V158.72H153.2266666666667C160.9066666666667 158.72 166.72 156.2666666666667 170.7733333333334 151.4133333333334C174.7733333333334 146.5066666666667 176.8000000000001 139.4666666666667 176.8000000000001 130.1866666666667V125.8133333333333zM128 256C125.6 256 123.3066666666667 255.7866666666667 120.96 255.6266666666667L161.6 214.9333333333333L175.7866666666667 229.12C210.6666666666667 212.64 235.68 178.7733333333334 239.4666666666667 138.6666666666667H255.4666666666667C250.0266666666667 204.3733333333333 195.0933333333333 256 128 256z" />
    <glyph glyph-name="ic_accessibility_48px"
      unicode="&#xEA02;"
      horiz-adv-x="256" d=" M128 234.6666666666667C139.7866666666667 234.6666666666667 149.3333333333334 225.12 149.3333333333334 213.3333333333334S139.7866666666667 192 128 192S106.6666666666667 201.5466666666667 106.6666666666667 213.3333333333333S116.2133333333334 234.6666666666667 128 234.6666666666667zM224 160H160V21.3333333333334H138.6666666666667V85.3333333333333H117.3333333333333V21.3333333333333H96V160H32V181.3333333333333H224V160z" />
    <glyph glyph-name="ic_accessible_48px"
      unicode="&#xEA03;"
      horiz-adv-x="256" d=" M106.6666666666667 213.3333333333334C106.6666666666667 201.5512586702764 116.2179253369431 192 128 192C139.7820746630569 192 149.3333333333333 201.5512586702764 149.3333333333333 213.3333333333334C149.3333333333333 225.1154079963903 139.7820746630569 234.6666666666667 128 234.6666666666667C116.2179253369431 234.6666666666667 106.6666666666667 225.1154079963903 106.6666666666667 213.3333333333334z M202.6666666666667 117.3333333333334V138.6666666666667C186.2933333333333 138.4533333333333 169.7066666666667 146.6666666666667 159.2533333333333 158.24L145.44 173.4933333333334C143.5733333333333 175.52 141.3333333333334 177.12 138.9333333333333 178.3466666666667C138.8266666666667 178.4 138.7733333333334 178.4533333333334 138.72 178.5066666666667H138.6133333333334C134.9333333333333 180.64 130.56 181.7066666666667 125.92 181.2266666666667C114.8266666666667 180.16 106.6666666666667 170.1866666666667 106.6666666666667 159.04V96C106.6666666666667 84.2133333333333 116.2133333333334 74.6666666666667 128 74.6666666666667H181.3333333333334V21.3333333333333H202.6666666666667V80C202.6666666666667 91.7866666666667 193.1200000000001 101.3333333333333 181.3333333333334 101.3333333333333H149.3333333333334V138.1333333333333C163.0933333333334 126.7733333333334 183.9466666666667 117.3866666666667 202.6666666666667 117.3333333333334zM136.8 64C132.4266666666667 51.5733333333333 120.5866666666667 42.6666666666667 106.6666666666667 42.6666666666667C89.0133333333333 42.6666666666667 74.6666666666667 57.0133333333333 74.6666666666667 74.6666666666667C74.6666666666667 88.5866666666667 83.5733333333333 100.4266666666667 96 104.8V126.9333333333333C71.68 121.9733333333333 53.3333333333333 100.48 53.3333333333333 74.6666666666667C53.3333333333333 45.2266666666667 77.2266666666667 21.3333333333334 106.6666666666667 21.3333333333334C132.48 21.3333333333334 153.9733333333333 39.68 158.9333333333333 64H136.8z" />
    <glyph glyph-name="ic_account_balance_48px"
      unicode="&#xEA04;"
      horiz-adv-x="256" d=" M42.6666666666667 149.3333333333334V74.6666666666667H74.6666666666667V149.3333333333334H42.6666666666667zM106.6666666666667 149.3333333333334V74.6666666666667H138.6666666666667V149.3333333333334H106.6666666666667zM21.3333333333333 21.3333333333333H224V53.3333333333333H21.3333333333333V21.3333333333333zM170.6666666666667 149.3333333333334V74.6666666666667H202.6666666666667V149.3333333333334H170.6666666666667zM122.6666666666667 245.3333333333334L21.3333333333333 192V170.6666666666667H224V192L122.6666666666667 245.3333333333334z" />
    <glyph glyph-name="ic_account_balance_wallet_48px"
      unicode="&#xEA05;"
      horiz-adv-x="256" d=" M224 64V53.3333333333333C224 41.5466666666667 214.4533333333333 32 202.6666666666667 32H53.3333333333333C41.5466666666667 32 32 41.5466666666667 32 53.3333333333333V202.6666666666667C32 214.4533333333333 41.5466666666667 224 53.3333333333333 224H202.6666666666666C214.4533333333333 224 224 214.4533333333333 224 202.6666666666667V192H128C116.2133333333334 192 106.6666666666667 182.4533333333334 106.6666666666667 170.6666666666667V85.3333333333333C106.6666666666667 73.5466666666667 116.2133333333334 64 128 64H224zM128 85.3333333333333H234.6666666666667V170.6666666666667H128V85.3333333333333zM170.6666666666667 112C161.8133333333333 112 154.6666666666667 119.1466666666667 154.6666666666667 128S161.8133333333333 144 170.6666666666667 144S186.6666666666667 136.8533333333334 186.6666666666667 128S179.52 112 170.6666666666667 112z" />
    <glyph glyph-name="ic_account_box_48px"
      unicode="&#xEA06;"
      horiz-adv-x="256" d=" M32 202.6666666666667V53.3333333333334C32 41.5466666666667 41.5466666666667 32 53.3333333333333 32H202.6666666666666C214.4533333333333 32 224 41.5466666666667 224 53.3333333333334V202.6666666666667C224 214.4533333333333 214.4533333333333 224 202.6666666666666 224H53.3333333333333C41.5466666666667 224 32 214.4533333333333 32 202.6666666666667zM160 160C160 142.2933333333334 145.6533333333333 128 128 128S96 142.2933333333334 96 160C96 177.6533333333333 110.3466666666667 192 128 192S160 177.6533333333333 160 160zM64 74.6666666666667C64 96 106.6666666666667 107.7333333333334 128 107.7333333333334S192 96 192 74.6666666666667V64H64V74.6666666666667z" />
    <glyph glyph-name="ic_account_circle_48px"
      unicode="&#xEA07;"
      horiz-adv-x="256" d=" M128 234.6666666666667C69.0666666666667 234.6666666666667 21.3333333333333 186.9333333333333 21.3333333333333 128S69.0666666666667 21.3333333333333 128 21.3333333333333S234.6666666666667 69.0666666666667 234.6666666666667 128S186.9333333333333 234.6666666666667 128 234.6666666666667zM128 202.6666666666667C145.6533333333333 202.6666666666667 160 188.32 160 170.6666666666667C160 152.96 145.6533333333333 138.6666666666667 128 138.6666666666667S96 152.96 96 170.6666666666667C96 188.32 110.3466666666667 202.6666666666667 128 202.6666666666667zM128 51.2C101.28 51.2 77.8133333333333 64.8533333333334 64 85.5466666666667C64.2666666666667 106.72 106.72 118.4 128 118.4S191.68 106.72 192 85.5466666666667C178.1866666666667 64.8533333333334 154.72 51.2 128 51.2z" />
    <glyph glyph-name="ic_add_48px"
      unicode="&#xEA08;"
      horiz-adv-x="256" d=" M202.6666666666667 117.3333333333334H138.6666666666667V53.3333333333333H117.3333333333333V117.3333333333334H53.3333333333333V138.6666666666667H117.3333333333333V202.6666666666667H138.6666666666667V138.6666666666667H202.6666666666667V117.3333333333334z" />
    <glyph glyph-name="ic_add_alert_48px"
      unicode="&#xEA09;"
      horiz-adv-x="256" d=" M106.7733333333333 37.2266666666667C106.7733333333333 25.4933333333333 116.2666666666667 16 128 16S149.2266666666667 25.4933333333333 149.2266666666667 37.2266666666667H106.7733333333333zM201.3866666666667 81.92V144C201.3866666666667 178.6666666666667 177.3866666666667 207.68 144.96 215.36V223.04C144.96 232.4266666666667 137.3866666666667 240 128 240S111.04 232.4266666666667 111.04 223.04V215.36C78.6133333333333 207.68 54.6133333333333 178.6666666666667 54.6133333333333 144V81.92L32 59.3066666666667V48H224V59.3066666666667L201.3866666666667 81.92zM170.6666666666667 122.6133333333334H138.6666666666667V90.6133333333334H117.3333333333333V122.6133333333334H85.3333333333333V144H117.3333333333333V176H138.6666666666667V144H170.6666666666667V122.6133333333334z" />
    <glyph glyph-name="ic_add_box_48px"
      unicode="&#xEA0A;"
      horiz-adv-x="256" d=" M202.6666666666667 224H53.3333333333333C41.5466666666667 224 32 214.4533333333333 32 202.6666666666667V53.3333333333334C32 41.5466666666667 41.5466666666667 32 53.3333333333333 32H202.6666666666666C214.4533333333333 32 224 41.5466666666667 224 53.3333333333334V202.6666666666667C224 214.4533333333333 214.4533333333333 224 202.6666666666666 224zM181.3333333333333 117.3333333333334H138.6666666666667V74.6666666666667H117.3333333333333V117.3333333333334H74.6666666666667V138.6666666666667H117.3333333333333V181.3333333333334H138.6666666666667V138.6666666666667H181.3333333333333V117.3333333333334z" />
    <glyph glyph-name="ic_add_circle_48px"
      unicode="&#xEA0B;"
      horiz-adv-x="256" d=" M128 234.6666666666667C69.0666666666667 234.6666666666667 21.3333333333333 186.9333333333333 21.3333333333333 128S69.0666666666667 21.3333333333333 128 21.3333333333333S234.6666666666667 69.0666666666667 234.6666666666667 128S186.9333333333333 234.6666666666667 128 234.6666666666667zM181.3333333333333 117.3333333333334H138.6666666666667V74.6666666666667H117.3333333333333V117.3333333333334H74.6666666666667V138.6666666666667H117.3333333333333V181.3333333333334H138.6666666666667V138.6666666666667H181.3333333333333V117.3333333333334z" />
    <glyph glyph-name="ic_add_circle_outline_48px"
      unicode="&#xEA0C;"
      horiz-adv-x="256" d=" M138.6666666666667 181.3333333333334H117.3333333333333V138.6666666666667H74.6666666666667V117.3333333333334H117.3333333333333V74.6666666666667H138.6666666666667V117.3333333333334H181.3333333333333V138.6666666666667H138.6666666666667V181.3333333333334zM128 234.6666666666667C69.0666666666667 234.6666666666667 21.3333333333333 186.9333333333333 21.3333333333333 128S69.0666666666667 21.3333333333333 128 21.3333333333333S234.6666666666667 69.0666666666667 234.6666666666667 128S186.9333333333333 234.6666666666667 128 234.6666666666667zM128 42.6666666666667C80.96 42.6666666666667 42.6666666666667 80.96 42.6666666666667 128S80.96 213.3333333333334 128 213.3333333333334S213.3333333333333 175.04 213.3333333333333 128S175.04 42.6666666666667 128 42.6666666666667z" />
    <glyph glyph-name="ic_add_shopping_cart_48px"
      unicode="&#xEA0D;"
      horiz-adv-x="256" d=" M117.3333333333333 160H138.6666666666667V192H170.6666666666667V213.3333333333334H138.6666666666667V245.3333333333334H117.3333333333333V213.3333333333334H85.3333333333333V192H117.3333333333333V160zM74.6666666666667 64C62.88 64 53.44 54.4533333333333 53.44 42.6666666666667S62.88 21.3333333333333 74.6666666666667 21.3333333333333S96 30.88 96 42.6666666666667S86.4533333333333 64 74.6666666666667 64zM181.3333333333333 64C169.5466666666667 64 160.1066666666667 54.4533333333333 160.1066666666667 42.6666666666667S169.5466666666667 21.3333333333333 181.3333333333333 21.3333333333333S202.6666666666667 30.88 202.6666666666667 42.6666666666667S193.12 64 181.3333333333333 64zM76.5333333333333 98.6666666666667C76.5333333333333 99.1466666666667 76.64 99.5733333333333 76.8533333333333 99.9466666666667L86.4533333333333 117.3333333333333H165.92C173.92 117.3333333333333 180.9066666666667 121.76 184.5866666666667 128.32L225.76 203.0933333333333L207.0933333333333 213.3333333333334H207.04L195.2533333333333 192L165.8666666666667 138.6666666666667H91.04L89.6533333333333 141.5466666666667L65.7066666666667 192L55.5733333333333 213.3333333333333L45.4933333333333 234.6666666666667H10.6666666666667V213.3333333333333H32L70.4 132.4266666666667L55.9466666666667 106.2933333333333C54.2933333333333 103.2 53.3333333333333 99.7333333333333 53.3333333333333 96C53.3333333333333 84.2133333333333 62.88 74.6666666666667 74.6666666666667 74.6666666666667H202.6666666666667V96H79.2C77.7066666666667 96 76.5333333333333 97.1733333333334 76.5333333333333 98.6666666666667z" />
    <glyph glyph-name="ic_add_to_queue_48px"
      unicode="&#xEA0E;"
      horiz-adv-x="256" d=" M224 224H32C20.2133333333333 224 10.6666666666667 214.4533333333333 10.6666666666667 202.6666666666667V74.6666666666667C10.6666666666667 62.88 20.2133333333333 53.3333333333333 32 53.3333333333333H85.3333333333333V32H170.6666666666667V53.3333333333333H224C235.7866666666667 53.3333333333333 245.2266666666667 62.88 245.2266666666667 74.6666666666667L245.3333333333333 202.6666666666667C245.3333333333333 214.4533333333333 235.7866666666667 224 224 224zM224 74.6666666666667H32V202.6666666666667H224V74.6666666666667zM170.6666666666667 149.3333333333334V128H138.6666666666667V96H117.3333333333333V128H85.3333333333333V149.3333333333333H117.3333333333333V181.3333333333333H138.6666666666667V149.3333333333333H170.6666666666667z" />
    <glyph glyph-name="ic_airplay_48px"
      unicode="&#xEA0F;"
      horiz-adv-x="256" d=" M224 224H32C20.2666666666667 224 10.6666666666667 214.4 10.6666666666667 202.6666666666667V74.6666666666667C10.6666666666667 62.9333333333333 20.2666666666667 53.3333333333333 32 53.3333333333333H74.6666666666667V74.6666666666667H32V202.6666666666667H224V74.6666666666667H181.3333333333334V53.3333333333333H224C235.7333333333334 53.3333333333333 245.3333333333334 62.9333333333333 245.3333333333334 74.6666666666667V202.6666666666667C245.3333333333334 214.4 235.7333333333334 224 224 224zM64 21.3333333333333H192L128 85.3333333333333z" />
    <glyph glyph-name="ic_alarm_48px"
      unicode="&#xEA10;"
      horiz-adv-x="256" d=" M234.6666666666667 194.9866666666667L185.6533333333333 236.1066666666667L171.9466666666667 219.7866666666667L220.96 178.6666666666667L234.6666666666667 194.9866666666667zM84.0533333333333 219.84L70.3466666666667 236.16L21.3333333333333 195.04L35.04 178.72L84.0533333333333 219.84zM133.3333333333333 170.6666666666667H117.3333333333333V106.6666666666667L167.9466666666667 76.2133333333334L176 89.3866666666667L133.3333333333334 114.6666666666667V170.6666666666667zM127.9466666666667 213.3333333333334C74.88 213.3333333333334 32 170.3466666666667 32 117.3333333333334S74.88 21.3333333333333 127.9466666666667 21.3333333333333S224 64.32 224 117.3333333333334S181.0133333333333 213.3333333333334 127.9466666666667 213.3333333333334zM128 42.6666666666667C86.7733333333333 42.6666666666667 53.3333333333333 76.1066666666667 53.3333333333333 117.3333333333334S86.7733333333333 192 128 192S202.6666666666667 158.56 202.6666666666667 117.3333333333334S169.28 42.6666666666667 128 42.6666666666667z" />
    <glyph glyph-name="ic_alarm_add_48px"
      unicode="&#xEA12;"
      horiz-adv-x="256" d=" M84.0533333333333 219.84L70.3466666666667 236.16L21.3333333333333 195.04L35.04 178.72L84.0533333333333 219.84zM234.6666666666667 194.9866666666667L185.6533333333333 236.1066666666667L171.9466666666667 219.7866666666667L220.96 178.6666666666667L234.6666666666667 194.9866666666667zM127.9466666666667 213.3333333333334C74.88 213.3333333333334 32 170.3466666666667 32 117.3333333333334S74.88 21.3333333333333 127.9466666666667 21.3333333333333S224 64.32 224 117.3333333333334S181.0133333333333 213.3333333333334 127.9466666666667 213.3333333333334zM128 42.6666666666667C86.7733333333333 42.6666666666667 53.3333333333333 76.1066666666667 53.3333333333333 117.3333333333334S86.7733333333333 192 128 192S202.6666666666667 158.56 202.6666666666667 117.3333333333334S169.28 42.6666666666667 128 42.6666666666667zM138.6666666666667 160H117.3333333333333V128H85.3333333333333V106.6666666666667H117.3333333333333V74.6666666666667H138.6666666666667V106.6666666666667H170.6666666666667V128H138.6666666666667V160z" />
    <glyph glyph-name="ic_alarm_off_48px"
      unicode="&#xEA11;"
      horiz-adv-x="256" d=" M128 192C169.2266666666667 192 202.6666666666667 158.56 202.6666666666667 117.3333333333334C202.6666666666667 108.32 201.0133333333333 99.7333333333334 198.08 91.7333333333334L214.2933333333333 75.52C220.48 88.16 224 102.3466666666667 224 117.3333333333334C224 170.3466666666667 181.0133333333333 213.3333333333334 127.9466666666667 213.3333333333334C112.96 213.3333333333334 98.8266666666667 209.8133333333333 86.1333333333333 203.68L102.4 187.4133333333334C110.4 190.3466666666667 118.9866666666667 192 128 192zM234.6666666666667 194.9866666666667L185.6533333333333 236.1066666666667L171.9466666666667 219.7866666666667L220.96 178.6666666666667L234.6666666666667 194.9866666666667zM31.1466666666667 231.52L17.5466666666667 217.9733333333333L31.7333333333333 203.7866666666667L19.8933333333333 193.8666666666667L35.04 178.72L46.88 188.64L55.4133333333333 180.1066666666667C40.8533333333333 163.2533333333333 32 141.3333333333334 32 117.3333333333334C32 64.32 74.88 21.3333333333333 127.9466666666667 21.3333333333333C152 21.3333333333333 173.92 30.24 190.72 44.8L214.1866666666667 21.3333333333333L227.7333333333333 34.9333333333333L41.5466666666667 221.12L31.1466666666667 231.52zM175.68 59.84C162.72 49.12 146.1333333333333 42.6666666666667 128 42.6666666666667C86.7733333333333 42.6666666666667 53.3333333333333 76.1066666666667 53.3333333333333 117.3333333333334C53.3333333333333 135.4666666666667 59.7866666666667 152.0533333333334 70.5066666666667 165.0133333333333L175.68 59.84zM85.4933333333333 221.0666666666667L70.3466666666667 236.2133333333334L61.28 228.5866666666667L76.4266666666667 213.44L85.4933333333333 221.0666666666667z" />
    <glyph glyph-name="ic_alarm_on_48px"
      unicode="&#xEA13;"
      horiz-adv-x="256" d=" M234.6666666666667 194.9866666666667L185.6533333333333 236.1066666666667L171.9466666666667 219.7866666666667L220.96 178.6666666666667L234.6666666666667 194.9866666666667zM84.0533333333333 219.84L70.3466666666667 236.16L21.3333333333333 195.04L35.04 178.72L84.0533333333333 219.84zM127.9466666666667 213.3333333333334C74.88 213.3333333333334 32 170.3466666666667 32 117.3333333333334S74.88 21.3333333333333 127.9466666666667 21.3333333333333S224 64.32 224 117.3333333333334S181.0133333333333 213.3333333333334 127.9466666666667 213.3333333333334zM128 42.6666666666667C86.7733333333333 42.6666666666667 53.3333333333333 76.1066666666667 53.3333333333333 117.3333333333334S86.7733333333333 192 128 192S202.6666666666667 158.56 202.6666666666667 117.3333333333334S169.28 42.6666666666667 128 42.6666666666667zM112.3733333333333 101.0666666666667L89.76 123.68L78.4533333333333 112.3733333333333L112.3733333333333 78.4533333333333L176.4266666666667 142.5066666666667L165.12 153.8133333333333L112.3733333333333 101.0666666666667z" />
    <glyph glyph-name="ic_album_48px"
      unicode="&#xEA14;"
      horiz-adv-x="256" d=" M128 234.6666666666667C69.0666666666667 234.6666666666667 21.3333333333333 186.9333333333333 21.3333333333333 128S69.0666666666667 21.3333333333333 128 21.3333333333333S234.6666666666667 69.0666666666667 234.6666666666667 128S186.9333333333333 234.6666666666667 128 234.6666666666667zM128 80C101.4933333333333 80 80 101.4933333333333 80 128S101.4933333333333 176 128 176S176 154.5066666666667 176 128S154.5066666666667 80 128 80zM128 138.6666666666667C122.1333333333333 138.6666666666667 117.3333333333333 133.8666666666667 117.3333333333333 128S122.1333333333333 117.3333333333334 128 117.3333333333334S138.6666666666667 122.1333333333334 138.6666666666667 128S133.8666666666667 138.6666666666667 128 138.6666666666667z" />
    <glyph glyph-name="ic_all_out_48px"
      unicode="&#xEA15;"
      horiz-adv-x="256" d=" M170.6666666666667 213.3333333333334L213.3333333333333 170.6666666666667V213.3333333333334zM213.3333333333333 85.3333333333333L170.6666666666667 42.6666666666667H213.3333333333333zM85.3333333333333 42.6666666666667L42.6666666666667 85.3333333333333V42.6666666666667zM42.6666666666667 170.6666666666667L85.3333333333333 213.3333333333334H42.6666666666667zM180.8 180.8C151.6266666666667 209.9733333333334 104.3733333333333 209.9733333333334 75.2 180.8S46.0266666666667 104.3733333333333 75.2 75.2S151.6266666666667 46.0266666666667 180.8 75.2S209.9733333333333 151.6266666666667 180.8 180.8zM169.0666666666667 86.9333333333333C146.4 64.2666666666667 109.6 64.2666666666667 86.9333333333333 86.9333333333333S64.2666666666667 146.4 86.9333333333333 169.0666666666667S146.4 191.7333333333333 169.0666666666667 169.0666666666667S191.7333333333333 109.6 169.0666666666667 86.9333333333333z" />
    <glyph glyph-name="ic_android_48px"
      unicode="&#xEA16;"
      horiz-adv-x="256" d=" M64 64C64 58.1333333333333 68.8 53.3333333333333 74.6666666666667 53.3333333333333H85.3333333333333V16C85.3333333333333 7.1466666666667 92.48 0 101.3333333333333 0S117.3333333333334 7.1466666666667 117.3333333333334 16V53.3333333333333H138.6666666666667V16C138.6666666666667 7.1466666666667 145.8133333333334 0 154.6666666666667 0S170.6666666666667 7.1466666666667 170.6666666666667 16V53.3333333333333H181.3333333333334C187.2 53.3333333333333 192 58.1333333333333 192 64V170.6666666666667H64V64zM37.3333333333333 170.6666666666667C28.48 170.6666666666667 21.3333333333333 163.52 21.3333333333333 154.6666666666667V80C21.3333333333333 71.1466666666667 28.48 64 37.3333333333333 64S53.3333333333333 71.1466666666667 53.3333333333333 80V154.6666666666667C53.3333333333333 163.52 46.1866666666667 170.6666666666667 37.3333333333333 170.6666666666667zM218.6666666666666 170.6666666666667C209.8133333333333 170.6666666666667 202.6666666666666 163.52 202.6666666666666 154.6666666666667V80C202.6666666666666 71.1466666666667 209.8133333333333 64 218.6666666666666 64S234.6666666666667 71.1466666666667 234.6666666666667 80V154.6666666666667C234.6666666666667 163.52 227.52 170.6666666666667 218.6666666666666 170.6666666666667zM165.6533333333333 232.96L179.5733333333333 246.88C181.6533333333333 248.96 181.6533333333333 252.32 179.5733333333333 254.4C177.4933333333333 256.48 174.1333333333333 256.48 172.0533333333333 254.4L156.2666666666667 238.6666666666667C147.7333333333333 242.88 138.1866666666667 245.3333333333334 128 245.3333333333334C117.76 245.3333333333334 108.16 242.88 99.5733333333333 238.6133333333334L83.7333333333333 254.4533333333334C81.6533333333333 256.5333333333334 78.2933333333333 256.5333333333334 76.2133333333333 254.4533333333334C74.1333333333333 252.3733333333334 74.1333333333333 249.0133333333333 76.2133333333333 246.9333333333334L90.1866666666667 232.96C74.3466666666667 221.28 64 202.5066666666667 64 181.3333333333334H192C192 202.56 181.6 221.3333333333334 165.6533333333333 232.96zM106.6666666666667 202.6666666666667H96V213.3333333333334H106.6666666666667V202.6666666666667zM160 202.6666666666667H149.3333333333334V213.3333333333334H160V202.6666666666667z" />
    <glyph glyph-name="ic_announcement_48px"
      unicode="&#xEA17;"
      horiz-adv-x="256" d=" M213.3333333333333 234.6666666666667H42.6666666666667C30.88 234.6666666666667 21.44 225.12 21.44 213.3333333333334L21.3333333333333 21.3333333333333L64 64H213.3333333333333C225.12 64 234.6666666666667 73.5466666666667 234.6666666666667 85.3333333333333V213.3333333333334C234.6666666666667 225.12 225.12 234.6666666666667 213.3333333333333 234.6666666666667zM138.6666666666667 138.6666666666667H117.3333333333333V202.6666666666667H138.6666666666667V138.6666666666667zM138.6666666666667 96H117.3333333333333V117.3333333333334H138.6666666666667V96z" />
    <glyph glyph-name="ic_archive_48px"
      unicode="&#xEA18;"
      horiz-adv-x="256" d=" M219.1466666666667 200.2666666666667L204.3733333333333 218.1866666666667C201.3866666666667 221.7066666666667 196.96 224 192 224H64C59.04 224 54.6133333333333 221.7066666666667 51.68 218.1866666666667L36.9066666666667 200.2666666666667C33.8133333333333 196.5333333333333 32 191.84 32 186.6666666666667V53.3333333333334C32 41.5466666666667 41.5466666666667 32 53.3333333333333 32H202.6666666666666C214.4533333333333 32 224 41.5466666666667 224 53.3333333333334V186.6666666666667C224 191.84 222.1866666666667 196.5333333333333 219.1466666666667 200.2666666666667zM128 69.3333333333333L69.3333333333333 128H106.6666666666667V149.3333333333333H149.3333333333333V128H186.6666666666666L128 69.3333333333333zM54.6666666666667 202.6666666666667L63.36 213.3333333333334H191.36L201.3333333333334 202.6666666666667H54.6666666666667z" />
    <glyph glyph-name="ic_art_track_48px"
      unicode="&#xEA19;"
      horiz-adv-x="256" d=" M234.6666666666667 117.3333333333334H149.3333333333333V138.6666666666667H234.6666666666667V117.3333333333334zM234.6666666666667 181.3333333333334H149.3333333333333V160H234.6666666666667V181.3333333333334zM149.3333333333333 74.6666666666667H234.6666666666667V96H149.3333333333333V74.6666666666667zM128 160V96C128 84.2666666666667 118.4 74.6666666666667 106.6666666666667 74.6666666666667H42.6666666666667C30.9333333333333 74.6666666666667 21.3333333333333 84.2666666666667 21.3333333333333 96V160C21.3333333333333 171.7333333333334 30.9333333333333 181.3333333333333 42.6666666666667 181.3333333333333H106.6666666666667C118.4 181.3333333333333 128 171.7333333333334 128 160zM112 96L88 128L69.3333333333333 103.9466666666667L56 120L37.3333333333333 96H112z" />
    <glyph glyph-name="ic_aspect_ratio_48px"
      unicode="&#xEA1A;"
      horiz-adv-x="256" d=" M202.6666666666667 128H181.3333333333333V96H149.3333333333333V74.6666666666667H202.6666666666666V128zM74.6666666666667 160H106.6666666666667V181.3333333333333H53.3333333333333V128H74.6666666666667V160zM224 224H32C20.2133333333333 224 10.6666666666667 214.4533333333333 10.6666666666667 202.6666666666667V53.3333333333334C10.6666666666667 41.5466666666667 20.2133333333333 32 32 32H224C235.7866666666667 32 245.3333333333334 41.5466666666667 245.3333333333334 53.3333333333334V202.6666666666667C245.3333333333334 214.4533333333333 235.7866666666667 224 224 224zM224 53.1733333333333H32V202.8266666666667H224V53.1733333333333z" />
    <glyph glyph-name="ic_assessment_48px"
      unicode="&#xEA1B;"
      horiz-adv-x="256" d=" M202.6666666666667 224H53.3333333333333C41.5466666666667 224 32 214.4533333333333 32 202.6666666666667V53.3333333333334C32 41.5466666666667 41.5466666666667 32 53.3333333333333 32H202.6666666666666C214.4533333333333 32 224 41.5466666666667 224 53.3333333333334V202.6666666666667C224 214.4533333333333 214.4533333333333 224 202.6666666666666 224zM96 74.6666666666667H74.6666666666667V149.3333333333334H96V74.6666666666667zM138.6666666666667 74.6666666666667H117.3333333333333V181.3333333333334H138.6666666666667V74.6666666666667zM181.3333333333333 74.6666666666667H160V117.3333333333334H181.3333333333333V74.6666666666667z" />
    <glyph glyph-name="ic_assignment_48px"
      unicode="&#xEA1C;"
      horiz-adv-x="256" d=" M202.6666666666667 224H158.0266666666667C153.6533333333333 236.3733333333334 141.92 245.3333333333334 128 245.3333333333334S102.3466666666667 236.3733333333334 97.9733333333333 224H53.3333333333333C41.5466666666667 224 32 214.4533333333333 32 202.6666666666667V53.3333333333334C32 41.5466666666667 41.5466666666667 32 53.3333333333333 32H202.6666666666666C214.4533333333333 32 224 41.5466666666667 224 53.3333333333334V202.6666666666667C224 214.4533333333333 214.4533333333333 224 202.6666666666666 224zM128 224C133.8666666666667 224 138.6666666666667 219.2533333333333 138.6666666666667 213.3333333333334S133.8666666666667 202.6666666666667 128 202.6666666666667S117.3333333333333 207.4133333333334 117.3333333333333 213.3333333333334S122.1333333333333 224 128 224zM149.3333333333334 74.6666666666667H74.6666666666667V96H149.3333333333333V74.6666666666667zM181.3333333333334 117.3333333333334H74.6666666666667V138.6666666666667H181.3333333333333V117.3333333333334zM181.3333333333334 160H74.6666666666667V181.3333333333333H181.3333333333333V160z" />
    <glyph glyph-name="ic_assignment_ind_48px"
      unicode="&#xEA1D;"
      horiz-adv-x="256" d=" M202.6666666666667 224H158.0266666666667C153.6533333333333 236.3733333333334 141.92 245.3333333333334 128 245.3333333333334S102.3466666666667 236.3733333333334 97.9733333333333 224H53.3333333333333C41.5466666666667 224 32 214.4533333333333 32 202.6666666666667V53.3333333333334C32 41.5466666666667 41.5466666666667 32 53.3333333333333 32H202.6666666666666C214.4533333333333 32 224 41.5466666666667 224 53.3333333333334V202.6666666666667C224 214.4533333333333 214.4533333333333 224 202.6666666666666 224zM128 224C133.8666666666667 224 138.6666666666667 219.2533333333333 138.6666666666667 213.3333333333334S133.8666666666667 202.6666666666667 128 202.6666666666667S117.3333333333333 207.4133333333334 117.3333333333333 213.3333333333334S122.1333333333333 224 128 224zM128 181.3333333333334C145.6533333333333 181.3333333333334 160 166.9866666666667 160 149.3333333333334C160 131.6266666666667 145.6533333333333 117.3333333333334 128 117.3333333333334S96 131.6266666666667 96 149.3333333333334C96 166.9866666666667 110.3466666666667 181.3333333333334 128 181.3333333333334zM192 53.3333333333333H64V68.2666666666667C64 89.6 106.6666666666667 101.3333333333333 128 101.3333333333333S192 89.6 192 68.2666666666667V53.3333333333333z" />
    <glyph glyph-name="ic_assignment_late_48px"
      unicode="&#xEA1E;"
      horiz-adv-x="256" d=" M202.6666666666667 224H158.0266666666667C153.6533333333333 236.3733333333334 141.92 245.3333333333334 128 245.3333333333334S102.3466666666667 236.3733333333334 97.9733333333333 224H53.3333333333333C41.5466666666667 224 32 214.4533333333333 32 202.6666666666667V53.3333333333334C32 41.5466666666667 41.5466666666667 32 53.3333333333333 32H202.6666666666666C214.4533333333333 32 224 41.5466666666667 224 53.3333333333334V202.6666666666667C224 214.4533333333333 214.4533333333333 224 202.6666666666666 224zM138.6666666666667 64H117.3333333333333V85.3333333333333H138.6666666666667V64zM138.6666666666667 106.6666666666667H117.3333333333333V170.6666666666667H138.6666666666667V106.6666666666667zM128 202.6666666666667C122.1333333333333 202.6666666666667 117.3333333333333 207.4133333333333 117.3333333333333 213.3333333333333S122.1333333333333 224 128 224S138.6666666666667 219.2533333333333 138.6666666666667 213.3333333333333S133.8666666666667 202.6666666666667 128 202.6666666666667z" />
    <glyph glyph-name="ic_assignment_return_48px"
      unicode="&#xEA1F;"
      horiz-adv-x="256" d=" M202.6666666666667 224H158.0266666666667C153.6533333333333 236.3733333333334 141.92 245.3333333333334 128 245.3333333333334S102.3466666666667 236.3733333333334 97.9733333333333 224H53.3333333333333C41.5466666666667 224 32 214.4533333333333 32 202.6666666666667V53.3333333333334C32 41.5466666666667 41.5466666666667 32 53.3333333333333 32H202.6666666666666C214.4533333333333 32 224 41.5466666666667 224 53.3333333333334V202.6666666666667C224 214.4533333333333 214.4533333333333 224 202.6666666666666 224zM128 224C133.8666666666667 224 138.6666666666667 219.2533333333333 138.6666666666667 213.3333333333334S133.8666666666667 202.6666666666667 128 202.6666666666667S117.3333333333333 207.4133333333334 117.3333333333333 213.3333333333334S122.1333333333333 224 128 224zM170.6666666666667 96H128V64L74.6666666666667 117.3333333333334L128 170.6666666666667V138.6666666666667H170.6666666666667V96z" />
    <glyph glyph-name="ic_assignment_returned_48px"
      unicode="&#xEA20;"
      horiz-adv-x="256" d=" M202.6666666666667 224H158.0266666666667C153.6533333333333 236.3733333333334 141.92 245.3333333333334 128 245.3333333333334S102.3466666666667 236.3733333333334 97.9733333333333 224H53.3333333333333C41.5466666666667 224 32 214.4533333333333 32 202.6666666666667V53.3333333333334C32 41.5466666666667 41.5466666666667 32 53.3333333333333 32H202.6666666666666C214.4533333333333 32 224 41.5466666666667 224 53.3333333333334V202.6666666666667C224 214.4533333333333 214.4533333333333 224 202.6666666666666 224zM128 224C133.8666666666667 224 138.6666666666667 219.2533333333333 138.6666666666667 213.3333333333334S133.8666666666667 202.6666666666667 128 202.6666666666667S117.3333333333333 207.4133333333334 117.3333333333333 213.3333333333334S122.1333333333333 224 128 224zM128 64L74.6666666666667 117.3333333333334H106.6666666666667V160H149.3333333333333V117.3333333333334H181.3333333333333L128 64z" />
    <glyph glyph-name="ic_assignment_turned_in_48px"
      unicode="&#xEA21;"
      horiz-adv-x="256" d=" M202.6666666666667 224H158.0266666666667C153.6533333333333 236.3733333333334 141.92 245.3333333333334 128 245.3333333333334S102.3466666666667 236.3733333333334 97.9733333333333 224H53.3333333333333C41.5466666666667 224 32 214.4533333333333 32 202.6666666666667V53.3333333333334C32 41.5466666666667 41.5466666666667 32 53.3333333333333 32H202.6666666666666C214.4533333333333 32 224 41.5466666666667 224 53.3333333333334V202.6666666666667C224 214.4533333333333 214.4533333333333 224 202.6666666666666 224zM128 224C133.8666666666667 224 138.6666666666667 219.2533333333333 138.6666666666667 213.3333333333334S133.8666666666667 202.6666666666667 128 202.6666666666667S117.3333333333333 207.4133333333334 117.3333333333333 213.3333333333334S122.1333333333333 224 128 224zM106.6666666666667 74.6666666666667L64 117.3333333333334L79.0933333333333 132.4266666666667L106.6666666666667 104.8533333333334L176.9066666666667 175.0933333333334L192 160L106.6666666666667 74.6666666666667z" />
    <glyph glyph-name="ic_attach_file_48px"
      unicode="&#xEA22;"
      horiz-adv-x="256" d=" M176 192V69.3333333333333C176 45.76 156.9066666666667 26.6666666666667 133.3333333333334 26.6666666666667S90.6666666666667 45.76 90.6666666666667 69.3333333333333V202.6666666666667C90.6666666666667 217.3866666666667 102.6133333333334 229.3333333333334 117.3333333333334 229.3333333333334S144 217.3866666666667 144 202.6666666666667V90.6666666666667C144 84.8 139.2533333333333 80 133.3333333333334 80C127.4133333333334 80 122.6666666666667 84.8 122.6666666666667 90.6666666666667V192H106.6666666666667V90.6666666666667C106.6666666666667 75.9466666666667 118.6133333333334 64 133.3333333333334 64S160 75.9466666666667 160 90.6666666666667V202.6666666666667C160 226.24 140.9066666666667 245.3333333333334 117.3333333333334 245.3333333333334S74.6666666666667 226.24 74.6666666666667 202.6666666666667V69.3333333333334C74.6666666666667 36.9066666666667 100.96 10.6666666666667 133.3333333333334 10.6666666666667S192 36.9066666666667 192 69.3333333333334V192H176z" />
    <glyph glyph-name="ic_attach_money_48px"
      unicode="&#xEA23;"
      horiz-adv-x="256" d=" M125.8666666666667 139.7333333333334C101.6533333333333 146.0266666666667 93.8666666666667 152.48 93.8666666666667 162.6133333333334C93.8666666666667 174.24 104.5866666666667 182.4 122.6666666666667 182.4C141.6533333333333 182.4 148.6933333333333 173.3333333333333 149.3333333333334 160H172.9066666666667C172.2133333333334 178.4 160.96 195.1466666666667 138.6666666666667 200.64V224H106.6666666666667V200.96C85.9733333333334 196.4266666666667 69.3333333333334 183.0933333333333 69.3333333333334 162.4533333333334C69.3333333333334 137.8133333333333 89.76 125.5466666666667 119.4666666666667 118.4C146.1866666666667 112 151.4666666666667 102.6666666666667 151.4666666666667 92.64C151.4666666666667 85.3333333333334 146.2933333333334 73.6000000000001 122.6666666666667 73.6000000000001C100.6933333333334 73.6000000000001 92 83.4666666666667 90.88 96.0000000000001H67.36C68.6933333333334 72.64 86.1333333333334 59.5733333333334 106.6666666666667 55.1466666666667V32H138.6666666666667V54.9333333333333C159.4133333333334 58.9333333333333 176.0000000000001 70.9333333333333 176.0000000000001 92.8533333333334C176.0000000000001 123.04 150.0800000000001 133.3866666666667 125.8666666666667 139.7333333333334z" />
    <glyph glyph-name="ic_attachment_48px"
      unicode="&#xEA24;"
      horiz-adv-x="256" d=" M80 64C47.5733333333333 64 21.3333333333333 90.2933333333334 21.3333333333333 122.6666666666667S47.5733333333333 181.3333333333334 80 181.3333333333334H192C215.5733333333333 181.3333333333334 234.6666666666667 162.24 234.6666666666667 138.6666666666667S215.5733333333333 96 192 96H101.3333333333333C86.6133333333333 96 74.6666666666667 107.9466666666667 74.6666666666667 122.6666666666667S86.6133333333333 149.3333333333334 101.3333333333333 149.3333333333334H181.3333333333333V133.3333333333334H101.3333333333333C95.4666666666667 133.3333333333334 90.6666666666667 128.5866666666667 90.6666666666667 122.6666666666667S95.4666666666667 112 101.3333333333333 112H192C206.72 112 218.6666666666667 123.9466666666667 218.6666666666667 138.6666666666667S206.72 165.3333333333334 192 165.3333333333334H80C56.4266666666667 165.3333333333334 37.3333333333333 146.24 37.3333333333333 122.6666666666667S56.4266666666667 80 80 80H181.3333333333333V64H80z" />
    <glyph glyph-name="ic_autorenew_48px"
      unicode="&#xEA25;"
      horiz-adv-x="256" d=" M128 192V160L170.6666666666667 202.6666666666667L128 245.3333333333333V213.3333333333333C80.8533333333333 213.3333333333334 42.6666666666667 175.1466666666667 42.6666666666667 128C42.6666666666667 111.2533333333333 47.5733333333333 95.7333333333334 55.8933333333333 82.56L71.4666666666667 98.1333333333333C66.72 107.04 64 117.1733333333333 64 128C64 163.36 92.64 192 128 192zM200.1066666666667 173.44L184.5333333333333 157.8666666666667C189.28 148.96 192 138.8266666666667 192 128C192 92.64 163.36 64 128 64V96L85.3333333333333 53.3333333333333L128 10.6666666666667V42.6666666666667C175.1466666666667 42.6666666666667 213.3333333333333 80.8533333333334 213.3333333333333 128C213.3333333333333 144.7466666666667 208.4266666666667 160.2666666666667 200.1066666666667 173.44z" />
    <glyph glyph-name="ic_av_timer_48px"
      unicode="&#xEA26;"
      horiz-adv-x="256" d=" M117.3333333333333 74.6666666666667C117.3333333333333 68.8 122.1333333333333 64 128 64S138.6666666666667 68.8 138.6666666666667 74.6666666666667S133.8666666666667 85.3333333333333 128 85.3333333333333S117.3333333333333 80.5333333333333 117.3333333333333 74.6666666666667zM117.3333333333333 224V181.3333333333334H138.6666666666667V201.8133333333333C174.8266666666667 196.64 202.6666666666667 165.6 202.6666666666667 128C202.6666666666667 86.7733333333333 169.2266666666667 53.3333333333333 128 53.3333333333333S53.3333333333333 86.7733333333333 53.3333333333333 128C53.3333333333333 145.92 59.6266666666667 162.2933333333333 70.1333333333333 175.2L128 117.3333333333334L143.0933333333333 132.4266666666667L70.56 204.96L70.4533333333333 204.7466666666667C47.1466666666667 187.2533333333333 32 159.4133333333334 32 128C32 74.9866666666667 74.88 32 127.9466666666667 32S224 74.9866666666667 224 128S181.0133333333333 224 127.9466666666667 224H117.3333333333333zM192 128C192 133.8666666666667 187.2 138.6666666666667 181.3333333333334 138.6666666666667S170.6666666666667 133.8666666666667 170.6666666666667 128S175.4666666666667 117.3333333333334 181.3333333333334 117.3333333333334S192 122.1333333333334 192 128zM64 128C64 122.1333333333333 68.8 117.3333333333334 74.6666666666667 117.3333333333334S85.3333333333333 122.1333333333334 85.3333333333333 128S80.5333333333334 138.6666666666667 74.6666666666667 138.6666666666667S64 133.8666666666667 64 128z" />
    <glyph glyph-name="ic_backspace_48px"
      unicode="&#xEA27;"
      horiz-adv-x="256" d=" M234.6666666666667 224H74.6666666666667C67.3066666666667 224 61.4933333333333 220.2666666666667 57.6533333333333 214.6133333333334L0 128.0533333333334L57.6533333333333 41.4933333333333C61.4933333333333 35.84 67.3066666666667 32 74.6666666666667 32H234.6666666666667C246.4533333333333 32 256 41.5466666666667 256 53.3333333333333V202.6666666666667C256 214.4533333333333 246.4533333333333 224 234.6666666666667 224zM202.6666666666667 89.76L187.5733333333333 74.6666666666667L149.3333333333333 112.9066666666667L111.0933333333333 74.6666666666667L96 89.76L134.24 128L96 166.24L111.0933333333333 181.3333333333334L149.3333333333333 143.0933333333333L187.5733333333333 181.3333333333334L202.6666666666667 166.24L164.4266666666667 128L202.6666666666667 89.76z" />
    <glyph glyph-name="ic_backup_48px"
      unicode="&#xEA28;"
      horiz-adv-x="256" d=" M206.4533333333333 148.96C199.2 185.6533333333333 166.8266666666667 213.3333333333334 128 213.3333333333334C97.1733333333333 213.3333333333334 70.4533333333334 195.84 57.0666666666667 170.2933333333334C25.0133333333333 166.8266666666667 0 139.68 0 106.6666666666667C0 71.3066666666667 28.64 42.6666666666667 64 42.6666666666667H202.6666666666667C232.1066666666667 42.6666666666667 256 66.56 256 96C256 124.16 234.08 146.9866666666667 206.4533333333334 148.96zM149.3333333333333 117.3333333333334V74.6666666666667H106.6666666666667V117.3333333333334H74.6666666666667L128 170.6666666666667L181.3333333333333 117.3333333333334H149.3333333333333z" />
    <glyph glyph-name="ic_block_48px"
      unicode="&#xEA29;"
      horiz-adv-x="256" d=" M128 234.6666666666667C69.0666666666667 234.6666666666667 21.3333333333333 186.9333333333333 21.3333333333333 128S69.0666666666667 21.3333333333333 128 21.3333333333333S234.6666666666667 69.0666666666667 234.6666666666667 128S186.9333333333333 234.6666666666667 128 234.6666666666667zM42.6666666666667 128C42.6666666666667 175.1466666666667 80.8533333333333 213.3333333333333 128 213.3333333333333C147.7333333333334 213.3333333333333 165.8133333333333 206.56 180.2666666666667 195.36L60.64 75.7333333333334C49.44 90.1866666666667 42.6666666666667 108.2666666666667 42.6666666666667 128zM128 42.6666666666667C108.2666666666667 42.6666666666667 90.1866666666667 49.44 75.7333333333333 60.64L195.36 180.2666666666667C206.56 165.8133333333333 213.3333333333333 147.7333333333334 213.3333333333333 128C213.3333333333333 80.8533333333334 175.1466666666667 42.6666666666667 128 42.6666666666667z" />
    <glyph glyph-name="ic_book_48px"
      unicode="&#xEA2A;"
      horiz-adv-x="256" d=" M192 234.6666666666667H64C52.2133333333333 234.6666666666667 42.6666666666667 225.12 42.6666666666667 213.3333333333334V42.6666666666667C42.6666666666667 30.88 52.2133333333333 21.3333333333333 64 21.3333333333333H192C203.7866666666667 21.3333333333333 213.3333333333334 30.88 213.3333333333334 42.6666666666667V213.3333333333334C213.3333333333334 225.12 203.7866666666667 234.6666666666667 192 234.6666666666667zM64 213.3333333333334H117.3333333333333V128L90.6666666666667 144L64 128V213.3333333333334z" />
    <glyph glyph-name="ic_bookmark_48px"
      unicode="&#xEA2B;"
      horiz-adv-x="256" d=" M181.3333333333333 224H74.6666666666667C62.88 224 53.44 214.4533333333333 53.44 202.6666666666667L53.3333333333333 32L128 64L202.6666666666666 32V202.6666666666667C202.6666666666666 214.4533333333333 193.12 224 181.3333333333333 224z" />
    <glyph glyph-name="ic_bookmark_border_48px"
      unicode="&#xEA2C;"
      horiz-adv-x="256" d=" M181.3333333333333 224H74.6666666666667C62.88 224 53.44 214.4533333333333 53.44 202.6666666666667L53.3333333333333 32L128 64L202.6666666666666 32V202.6666666666667C202.6666666666666 214.4533333333333 193.12 224 181.3333333333333 224zM181.3333333333333 64L128 87.2L74.6666666666667 64V202.6666666666667H181.3333333333333V64z" />
    <glyph glyph-name="ic_border_all_48px"
      unicode="&#xEA2D;"
      horiz-adv-x="256" d=" M32 224V32H224V224H32zM117.3333333333333 53.3333333333333H53.3333333333333V117.3333333333334H117.3333333333333V53.3333333333333zM117.3333333333333 138.6666666666667H53.3333333333333V202.6666666666667H117.3333333333333V138.6666666666667zM202.6666666666667 53.3333333333333H138.6666666666667V117.3333333333334H202.6666666666667V53.3333333333333zM202.6666666666667 138.6666666666667H138.6666666666667V202.6666666666667H202.6666666666667V138.6666666666667z" />
    <glyph glyph-name="ic_border_bottom_48px"
      unicode="&#xEA2F;"
      horiz-adv-x="256" d=" M96 138.6666666666667H74.6666666666667V117.3333333333334H96V138.6666666666667zM138.6666666666667 96H117.3333333333333V74.6666666666667H138.6666666666667V96zM96 224H74.6666666666667V202.6666666666667H96V224zM138.6666666666667 138.6666666666667H117.3333333333333V117.3333333333334H138.6666666666667V138.6666666666667zM53.3333333333333 224H32V202.6666666666667H53.3333333333333V224zM138.6666666666667 181.3333333333334H117.3333333333333V160H138.6666666666667V181.3333333333334zM181.3333333333333 138.6666666666667H160V117.3333333333334H181.3333333333333V138.6666666666667zM138.6666666666667 224H117.3333333333333V202.6666666666667H138.6666666666667V224zM181.3333333333333 224H160V202.6666666666667H181.3333333333333V224zM202.6666666666667 117.3333333333334H224V138.6666666666667H202.6666666666667V117.3333333333334zM202.6666666666667 74.6666666666667H224V96H202.6666666666667V74.6666666666667zM53.3333333333333 181.3333333333334H32V160H53.3333333333333V181.3333333333334zM202.6666666666666 224V202.6666666666667H224V224H202.6666666666666zM202.6666666666666 160H224V181.3333333333333H202.6666666666666V160zM53.3333333333333 138.6666666666667H32V117.3333333333334H53.3333333333333V138.6666666666667zM32 32H224V53.3333333333333H32V32zM53.3333333333333 96H32V74.6666666666667H53.3333333333333V96z" />
    <glyph glyph-name="ic_border_clear_48px"
      unicode="&#xEA2E;"
      horiz-adv-x="256" d=" M74.6666666666667 202.6666666666667H96V224H74.6666666666667V202.6666666666667zM74.6666666666667 117.3333333333334H96V138.6666666666667H74.6666666666667V117.3333333333334zM74.6666666666667 32H96V53.3333333333333H74.6666666666667V32zM117.3333333333333 74.6666666666667H138.6666666666667V96H117.3333333333333V74.6666666666667zM117.3333333333333 32H138.6666666666667V53.3333333333333H117.3333333333333V32zM32 32H53.3333333333333V53.3333333333333H32V32zM32 74.6666666666667H53.3333333333333V96H32V74.6666666666667zM32 117.3333333333333H53.3333333333333V138.6666666666666H32V117.3333333333333zM32 160H53.3333333333333V181.3333333333333H32V160zM32 202.6666666666666H53.3333333333333V224H32V202.6666666666667zM117.3333333333333 117.3333333333333H138.6666666666667V138.6666666666666H117.3333333333333V117.3333333333333zM202.6666666666667 74.6666666666667H224V96H202.6666666666667V74.6666666666667zM202.6666666666667 117.3333333333333H224V138.6666666666666H202.6666666666667V117.3333333333333zM202.6666666666667 32H224V53.3333333333333H202.6666666666667V32zM202.6666666666667 160H224V181.3333333333333H202.6666666666667V160zM117.3333333333333 160H138.6666666666667V181.3333333333333H117.3333333333333V160zM202.6666666666667 224V202.6666666666667H224V224H202.6666666666667zM117.3333333333333 202.6666666666667H138.6666666666667V224H117.3333333333333V202.6666666666667zM160 32H181.3333333333334V53.3333333333333H160V32zM160 117.3333333333333H181.3333333333334V138.6666666666666H160V117.3333333333333zM160 202.6666666666666H181.3333333333334V224H160V202.6666666666667z" />
    <glyph glyph-name="ic_border_color_48px"
      unicode="&#xEA30;"
      horiz-adv-x="256" d=" M189.3333333333333 181.3333333333334L149.3333333333333 221.3333333333334L42.6666666666667 114.6666666666667V74.6666666666667H82.6666666666667L189.3333333333333 181.3333333333334zM220.8533333333333 212.8533333333334C225.0133333333333 217.0133333333333 225.0133333333333 223.7866666666667 220.8533333333333 227.9466666666667L195.9466666666667 252.8533333333333C191.7866666666667 257.0133333333333 185.0133333333333 257.0133333333333 180.8533333333333 252.8533333333333L160 232L200 192L220.8533333333333 212.8533333333333z M0 42.6666666666667H256V0H0z" />
    <glyph glyph-name="ic_border_horizontal_48px"
      unicode="&#xEA31;"
      horiz-adv-x="256" d=" M32 32H53.3333333333333V53.3333333333333H32V32zM53.3333333333333 181.3333333333333H32V160H53.3333333333333V181.3333333333333zM32 74.6666666666667H53.3333333333333V96H32V74.6666666666667zM74.6666666666667 32H96V53.3333333333334H74.6666666666667V32zM53.3333333333333 224H32V202.6666666666667H53.3333333333333V224zM96 224H74.6666666666667V202.6666666666667H96V224zM181.3333333333333 224H160V202.6666666666667H181.3333333333333V224zM138.6666666666667 181.3333333333334H117.3333333333333V160H138.6666666666667V181.3333333333334zM138.6666666666667 224H117.3333333333333V202.6666666666667H138.6666666666667V224zM202.6666666666667 74.6666666666667H224V96H202.6666666666667V74.6666666666667zM117.3333333333333 32H138.6666666666667V53.3333333333334H117.3333333333333V32zM32 117.3333333333334H224V138.6666666666667H32V117.3333333333334zM202.6666666666667 224V202.6666666666667H224V224H202.6666666666667zM202.6666666666667 160H224V181.3333333333333H202.6666666666667V160zM117.3333333333333 74.6666666666667H138.6666666666667V96H117.3333333333333V74.6666666666667zM160 32H181.3333333333334V53.3333333333334H160V32zM202.6666666666667 32H224V53.3333333333334H202.6666666666667V32z" />
    <glyph glyph-name="ic_border_inner_48px"
      unicode="&#xEA32;"
      horiz-adv-x="256" d=" M32 32H53.3333333333333V53.3333333333333H32V32zM74.6666666666667 32H96V53.3333333333333H74.6666666666667V32zM53.3333333333333 181.3333333333333H32V160H53.3333333333333V181.3333333333333zM32 74.6666666666667H53.3333333333333V96H32V74.6666666666667zM96 224H74.6666666666667V202.6666666666667H96V224zM53.3333333333333 224H32V202.6666666666667H53.3333333333333V224zM181.3333333333334 224H160V202.6666666666667H181.3333333333334V224zM202.6666666666667 160H224V181.3333333333333H202.6666666666667V160zM202.6666666666667 224V202.6666666666667H224V224H202.6666666666667zM160 32H181.3333333333334V53.3333333333333H160V32zM138.6666666666667 224H117.3333333333333V138.6666666666667H32V117.3333333333334H117.3333333333333V32H138.6666666666667V117.3333333333334H224V138.6666666666667H138.6666666666667V224zM202.6666666666667 32H224V53.3333333333333H202.6666666666667V32zM202.6666666666667 74.6666666666667H224V96H202.6666666666667V74.6666666666667z" />
    <glyph glyph-name="ic_border_left_48px"
      unicode="&#xEA33;"
      horiz-adv-x="256" d=" M117.3333333333333 32H138.6666666666667V53.3333333333333H117.3333333333333V32zM117.3333333333333 74.6666666666667H138.6666666666667V96H117.3333333333333V74.6666666666667zM117.3333333333333 202.6666666666667H138.6666666666667V224H117.3333333333333V202.6666666666667zM117.3333333333333 160H138.6666666666667V181.3333333333333H117.3333333333333V160zM117.3333333333333 117.3333333333334H138.6666666666667V138.6666666666667H117.3333333333333V117.3333333333334zM74.6666666666667 32H96V53.3333333333333H74.6666666666667V32zM74.6666666666667 202.6666666666667H96V224H74.6666666666667V202.6666666666667zM74.6666666666667 117.3333333333333H96V138.6666666666666H74.6666666666667V117.3333333333333zM32 32H53.3333333333333V224H32V32zM202.6666666666667 160H224V181.3333333333333H202.6666666666667V160zM160 32H181.3333333333334V53.3333333333333H160V32zM202.6666666666667 74.6666666666667H224V96H202.6666666666667V74.6666666666667zM202.6666666666667 224V202.6666666666666H224V224H202.6666666666667zM202.6666666666667 117.3333333333333H224V138.6666666666666H202.6666666666667V117.3333333333333zM202.6666666666667 32H224V53.3333333333333H202.6666666666667V32zM160 117.3333333333333H181.3333333333334V138.6666666666666H160V117.3333333333333zM160 202.6666666666666H181.3333333333334V224H160V202.6666666666667z" />
    <glyph glyph-name="ic_border_outer_48px"
      unicode="&#xEA34;"
      horiz-adv-x="256" d=" M138.6666666666667 181.3333333333334H117.3333333333333V160H138.6666666666667V181.3333333333334zM138.6666666666667 138.6666666666667H117.3333333333333V117.3333333333334H138.6666666666667V138.6666666666667zM181.3333333333333 138.6666666666667H160V117.3333333333334H181.3333333333333V138.6666666666667zM32 224V32H224V224H32zM202.6666666666667 53.3333333333333H53.3333333333333V202.6666666666667H202.6666666666666V53.3333333333334zM138.6666666666667 96H117.3333333333333V74.6666666666667H138.6666666666667V96zM96 138.6666666666667H74.6666666666667V117.3333333333333H96V138.6666666666666z" />
    <glyph glyph-name="ic_border_right_48px"
      unicode="&#xEA35;"
      horiz-adv-x="256" d=" M74.6666666666667 32H96V53.3333333333333H74.6666666666667V32zM32 202.6666666666667H53.3333333333333V224H32V202.6666666666667zM74.6666666666667 202.6666666666667H96V224H74.6666666666667V202.6666666666667zM74.6666666666667 117.3333333333334H96V138.6666666666667H74.6666666666667V117.3333333333334zM32 32H53.3333333333333V53.3333333333333H32V32zM117.3333333333333 32H138.6666666666667V53.3333333333333H117.3333333333333V32zM32 117.3333333333334H53.3333333333333V138.6666666666667H32V117.3333333333334zM32 74.6666666666667H53.3333333333333V96H32V74.6666666666667zM32 160H53.3333333333333V181.3333333333334H32V160zM117.3333333333333 74.6666666666667H138.6666666666667V96H117.3333333333333V74.6666666666667zM160 117.3333333333334H181.3333333333334V138.6666666666667H160V117.3333333333334zM202.6666666666667 224V32H224V224H202.6666666666667zM160 32H181.3333333333334V53.3333333333333H160V32zM160 202.6666666666667H181.3333333333334V224H160V202.6666666666667zM117.3333333333334 117.3333333333333H138.6666666666667V138.6666666666666H117.3333333333334V117.3333333333333zM117.3333333333334 202.6666666666666H138.6666666666667V224H117.3333333333334V202.6666666666667zM117.3333333333334 160H138.6666666666667V181.3333333333333H117.3333333333334V160z" />
    <glyph glyph-name="ic_border_style_48px"
      unicode="&#xEA36;"
      horiz-adv-x="256" d=" M160 32H181.3333333333334V53.3333333333333H160V32zM202.6666666666667 32H224V53.3333333333333H202.6666666666667V32zM74.6666666666667 32H96V53.3333333333333H74.6666666666667V32zM117.3333333333333 32H138.6666666666667V53.3333333333333H117.3333333333333V32zM202.6666666666666 74.6666666666667H224V96H202.6666666666666V74.6666666666667zM202.6666666666666 117.3333333333333H224V138.6666666666666H202.6666666666666V117.3333333333333zM32 224V32H53.3333333333333V202.6666666666667H224V224H32zM202.6666666666667 160H224V181.3333333333333H202.6666666666667V160z" />
    <glyph glyph-name="ic_border_top_48px"
      unicode="&#xEA37;"
      horiz-adv-x="256" d=" M74.6666666666667 32H96V53.3333333333333H74.6666666666667V32zM74.6666666666667 117.3333333333333H96V138.6666666666666H74.6666666666667V117.3333333333333zM117.3333333333333 117.3333333333333H138.6666666666667V138.6666666666666H117.3333333333333V117.3333333333333zM117.3333333333333 32H138.6666666666667V53.3333333333333H117.3333333333333V32zM32 74.6666666666667H53.3333333333333V96H32V74.6666666666667zM32 32H53.3333333333333V53.3333333333334H32V32zM32 117.3333333333334H53.3333333333333V138.6666666666667H32V117.3333333333334zM32 160H53.3333333333333V181.3333333333334H32V160zM117.3333333333333 74.6666666666667H138.6666666666667V96H117.3333333333333V74.6666666666667zM202.6666666666667 160H224V181.3333333333334H202.6666666666667V160zM202.6666666666667 117.3333333333334H224V138.6666666666667H202.6666666666667V117.3333333333334zM32 224V202.6666666666667H224V224H32zM202.6666666666667 74.6666666666667H224V96H202.6666666666667V74.6666666666667zM160 32H181.3333333333334V53.3333333333334H160V32zM117.3333333333334 160H138.6666666666667V181.3333333333334H117.3333333333334V160zM202.6666666666667 32H224V53.3333333333334H202.6666666666667V32zM160 117.3333333333334H181.3333333333334V138.6666666666667H160V117.3333333333334z" />
    <glyph glyph-name="ic_border_vertical_48px"
      unicode="&#xEA38;"
      horiz-adv-x="256" d=" M32 160H53.3333333333333V181.3333333333333H32V160zM32 202.6666666666667H53.3333333333333V224H32V202.6666666666667zM74.6666666666667 32H96V53.3333333333333H74.6666666666667V32zM74.6666666666667 117.3333333333333H96V138.6666666666666H74.6666666666667V117.3333333333333zM32 117.3333333333333H53.3333333333333V138.6666666666666H32V117.3333333333333zM32 32H53.3333333333333V53.3333333333333H32V32zM32 74.6666666666667H53.3333333333333V96H32V74.6666666666667zM74.6666666666667 202.6666666666667H96V224H74.6666666666667V202.6666666666667zM202.6666666666667 74.6666666666667H224V96H202.6666666666667V74.6666666666667zM117.3333333333333 32H138.6666666666667V224H117.3333333333333V32zM202.6666666666667 32H224V53.3333333333333H202.6666666666667V32zM202.6666666666667 117.3333333333333H224V138.6666666666666H202.6666666666667V117.3333333333333zM202.6666666666667 224V202.6666666666666H224V224H202.6666666666667zM202.6666666666667 160H224V181.3333333333333H202.6666666666667V160zM160 202.6666666666666H181.3333333333334V224H160V202.6666666666667zM160 32H181.3333333333334V53.3333333333333H160V32zM160 117.3333333333333H181.3333333333334V138.6666666666666H160V117.3333333333333z" />
    <glyph glyph-name="ic_branding_watermark_48px"
      unicode="&#xEA39;"
      horiz-adv-x="256" d=" M224 224H32C20.2666666666667 224 10.6666666666667 214.4 10.6666666666667 202.6666666666667V53.3333333333334C10.6666666666667 41.6 20.2666666666667 32 32 32H224C235.7333333333334 32 245.3333333333334 41.6 245.3333333333334 53.3333333333334V202.6666666666667C245.3333333333334 214.4 235.7333333333334 224 224 224zM224 53.3333333333333H128V117.3333333333334H224V53.3333333333333z" />
    <glyph glyph-name="ic_bubble_chart_48px"
      unicode="&#xEA3A;"
      horiz-adv-x="256" d=" M42.6666666666667 102.4C42.6666666666667 83.5486805391089 57.9486805391089 68.2666666666667 76.8 68.2666666666667C95.6513194608911 68.2666666666667 110.9333333333333 83.5486805391089 110.9333333333333 102.4C110.9333333333333 121.2513194608911 95.6513194608911 136.5333333333334 76.8 136.5333333333334C57.9486805391089 136.5333333333334 42.6666666666667 121.2513194608911 42.6666666666667 102.4z M136.5333333333333 64C136.5333333333333 52.2179253369431 146.0845920036098 42.6666666666667 157.8666666666667 42.6666666666667C169.6487413297236 42.6666666666667 179.2 52.2179253369431 179.2 64C179.2 75.7820746630569 169.6487413297236 85.3333333333333 157.8666666666667 85.3333333333333C146.0845920036098 85.3333333333333 136.5333333333333 75.7820746630569 136.5333333333333 64z M110.9333333333333 162.1333333333333C110.9333333333333 133.8563541419967 133.8563541419967 110.9333333333333 162.1333333333333 110.9333333333333C190.41031252467 110.9333333333333 213.3333333333333 133.8563541419967 213.3333333333333 162.1333333333333C213.3333333333333 190.41031252467 190.41031252467 213.3333333333333 162.1333333333333 213.3333333333333C133.8563541419967 213.3333333333333 110.9333333333333 190.41031252467 110.9333333333333 162.1333333333333z" />
    <glyph glyph-name="ic_bug_report_48px"
      unicode="&#xEA3B;"
      horiz-adv-x="256" d=" M213.3333333333333 170.6666666666667H183.36C178.56 178.9866666666667 171.9466666666667 186.1866666666667 164 191.5733333333333L181.3333333333333 208.9066666666667L166.24 224L143.04 200.8C138.24 201.9733333333333 133.1733333333334 202.6666666666667 128 202.6666666666667C122.8266666666667 202.6666666666667 117.76 201.9733333333333 112.96 200.8L89.76 224L74.6666666666667 208.9066666666667L92 191.5733333333333C84.0533333333333 186.1866666666667 77.44 178.9866666666667 72.64 170.6666666666667H42.6666666666667V149.3333333333334H64.96C64.3733333333333 145.8666666666667 64 142.2933333333334 64 138.6666666666667V128H42.6666666666667V106.6666666666667H64V96C64 92.3733333333333 64.3733333333333 88.8 64.96 85.3333333333333H42.6666666666667V64H72.64C83.68 44.9066666666667 104.32 32 128 32S172.32 44.9066666666667 183.36 64H213.3333333333333V85.3333333333333H191.04C191.6266666666667 88.8 192 92.3733333333333 192 96V106.6666666666667H213.3333333333334V128H192V138.6666666666667C192 142.2933333333334 191.6266666666667 145.8666666666667 191.04 149.3333333333334H213.3333333333333V170.6666666666667zM149.3333333333333 85.3333333333333H106.6666666666667V106.6666666666667H149.3333333333333V85.3333333333333zM149.3333333333333 128H106.6666666666667V149.3333333333333H149.3333333333333V128z" />
    <glyph glyph-name="ic_build_48px"
      unicode="&#xEA3C;"
      horiz-adv-x="256" d=" M242.1333333333334 53.8666666666667L144.5333333333333 151.4666666666667C154.1333333333333 176 148.8 205.3333333333333 129.0666666666667 225.0666666666667C107.7333333333333 246.4 75.7333333333333 250.6666666666667 50.1333333333333 238.4L96.5333333333333 192L64 159.4666666666667L17.6 205.8666666666667C5.3333333333333 180.2666666666667 9.6 148.2666666666667 30.9333333333333 126.9333333333333C50.6666666666667 107.2 80 101.8666666666667 104.5333333333333 111.4666666666667L202.1333333333333 13.8666666666667C206.4 9.6 213.3333333333333 9.6 217.0666666666667 13.8666666666667L242.1333333333334 38.9333333333333C246.4 42.6666666666667 246.4 49.6 242.1333333333334 53.8666666666667z" />
    <glyph glyph-name="ic_business_48px"
      unicode="&#xEA3D;"
      horiz-adv-x="256" d=" M128 181.3333333333334V224H21.3333333333333V32H234.6666666666667V181.3333333333334H128zM64 53.3333333333333H42.6666666666667V74.6666666666667H64V53.3333333333333zM64 96H42.6666666666667V117.3333333333334H64V96zM64 138.6666666666667H42.6666666666667V160H64V138.6666666666667zM64 181.3333333333333H42.6666666666667V202.6666666666666H64V181.3333333333333zM106.6666666666667 53.3333333333333H85.3333333333333V74.6666666666667H106.6666666666667V53.3333333333333zM106.6666666666667 96H85.3333333333333V117.3333333333333H106.6666666666667V96zM106.6666666666667 138.6666666666666H85.3333333333333V160H106.6666666666667V138.6666666666666zM106.6666666666667 181.3333333333333H85.3333333333333V202.6666666666666H106.6666666666667V181.3333333333333zM213.3333333333333 53.3333333333333H128V74.6666666666666H149.3333333333334V96H128V117.3333333333333H149.3333333333334V138.6666666666666H128V160H213.3333333333333V53.3333333333333zM192 138.6666666666666H170.6666666666666V117.3333333333333H192V138.6666666666666zM192 95.9999999999999H170.6666666666666V74.6666666666666H192V95.9999999999999z" />
    <glyph glyph-name="ic_cached_48px"
      unicode="&#xEA3E;"
      horiz-adv-x="256" d=" M202.6666666666667 170.6666666666667L160 128H192C192 92.64 163.36 64 128 64C117.1733333333333 64 107.04 66.72 98.08 71.4133333333333L82.5066666666667 55.84C95.7333333333333 47.5733333333334 111.2533333333333 42.6666666666667 128 42.6666666666667C175.1466666666667 42.6666666666667 213.3333333333333 80.8533333333334 213.3333333333333 128H245.3333333333333L202.6666666666667 170.6666666666667zM64 128C64 163.36 92.64 192 128 192C138.8266666666667 192 148.96 189.28 157.92 184.5866666666667L173.4933333333334 200.16C160.2666666666667 208.4266666666667 144.7466666666667 213.3333333333334 128 213.3333333333334C80.8533333333333 213.3333333333334 42.6666666666667 175.1466666666667 42.6666666666667 128H10.6666666666667L53.3333333333333 85.3333333333333L96 128H64z" />
    <glyph glyph-name="ic_call_48px"
      unicode="&#xEA3F;"
      horiz-adv-x="256" d=" M70.6666666666667 140.8533333333334C86.0266666666667 110.6666666666667 110.72 85.9733333333334 140.96 70.6133333333334L164.4266666666667 94.1333333333334C167.36 97.0666666666667 171.5733333333333 97.92 175.2533333333333 96.7466666666667C187.2 92.8 200.0533333333333 90.6666666666667 213.3333333333333 90.6666666666667C219.2533333333333 90.6666666666667 224 85.92 224 80V42.6666666666667C224 36.7466666666667 219.2533333333333 32 213.3333333333333 32C113.1733333333333 32 32 113.1733333333334 32 213.3333333333334C32 219.2533333333333 36.8 224 42.6666666666667 224H80C85.92 224 90.6666666666667 219.2533333333333 90.6666666666667 213.3333333333334C90.6666666666667 200.0533333333334 92.8 187.2 96.7466666666667 175.2533333333333C97.92 171.5733333333333 97.0666666666667 167.36 94.1333333333333 164.4266666666667L70.6666666666667 140.8533333333333z" />
    <glyph glyph-name="ic_call_end_48px"
      unicode="&#xEA40;"
      horiz-adv-x="256" d=" M128 160C110.88 160 94.4 157.3333333333333 78.9333333333333 152.32V119.2C78.9333333333333 114.9866666666667 76.48 111.36 72.96 109.6C62.56 104.3733333333333 53.0133333333333 97.7066666666667 44.5333333333333 89.8666666666667C42.6133333333333 88 40 86.8266666666667 37.0666666666667 86.8266666666667C34.1333333333333 86.8266666666667 31.4666666666667 88 29.5466666666667 89.9733333333334L3.1466666666667 116.3733333333333C1.1733333333333 118.3466666666667 0 121.0133333333333 0 123.9466666666667C0 126.88 1.1733333333333 129.5466666666667 3.1466666666667 131.52C35.6266666666667 162.4 79.6266666666667 181.3333333333334 128 181.3333333333334S220.3733333333333 162.4 252.8533333333333 131.52C254.8266666666667 129.6 256 126.88 256 123.9466666666667C256 121.0133333333334 254.8266666666667 118.3466666666667 252.8533333333333 116.4266666666667L226.4533333333333 90.0266666666667C224.5333333333333 88.1066666666667 221.8666666666667 86.88 218.9333333333333 86.88C216.0533333333333 86.88 213.3866666666667 88.0533333333333 211.4666666666667 89.92C202.9866666666667 97.76 193.44 104.4266666666667 183.04 109.6533333333333C179.52 111.4133333333333 177.0666666666666 115.04 177.0666666666666 119.2533333333333V152.3733333333333C161.6 157.3333333333334 145.12 160 128 160z" />
    <glyph glyph-name="ic_call_made_48px"
      unicode="&#xEA41;"
      horiz-adv-x="256" d=" M96 202.6666666666667V181.3333333333334H166.24L42.6666666666667 57.76L57.76 42.6666666666667L181.3333333333333 166.24V96H202.6666666666667V202.6666666666667z" />
    <glyph glyph-name="ic_call_merge_48px"
      unicode="&#xEA42;"
      horiz-adv-x="256" d=" M181.3333333333333 38.24L196.4266666666667 53.3333333333333L160 89.76L144.9066666666667 74.6666666666667L181.3333333333333 38.24zM80 170.6666666666667H117.3333333333333V111.0933333333333L59.5733333333333 53.3333333333333L74.6666666666667 38.24L138.6666666666667 102.24V170.6666666666667H176L128 218.6666666666667L80 170.6666666666667z" />
    <glyph glyph-name="ic_call_missed_48px"
      unicode="&#xEA43;"
      horiz-adv-x="256" d=" M208.9066666666667 181.3333333333334L128 100.4266666666667L68.4266666666667 160H117.3333333333333V181.3333333333333H32V96H53.3333333333333V144.9066666666667L128 70.24L224 166.24z" />
    <glyph glyph-name="ic_call_missed_outgoing_48px"
      unicode="&#xEA44;"
      horiz-adv-x="256" d=" M32 166.2933333333334L128 70.2933333333334L202.6666666666667 144.96V96H224V181.3333333333334H138.6666666666667V160H187.6266666666667L128 100.3733333333333L47.04 181.3333333333334L32 166.2933333333334z" />
    <glyph glyph-name="ic_call_received_48px"
      unicode="&#xEA45;"
      horiz-adv-x="256" d=" M213.3333333333333 198.24L198.24 213.3333333333334L74.6666666666667 89.76V160H53.3333333333333V53.3333333333333H160V74.6666666666667H89.76z" />
    <glyph glyph-name="ic_call_split_48px"
      unicode="&#xEA46;"
      horiz-adv-x="256" d=" M149.3333333333333 213.3333333333334L173.8133333333333 188.8533333333334L143.0933333333333 158.1866666666667L158.1866666666667 143.0933333333333L188.8533333333333 173.8133333333333L213.3333333333333 149.3333333333334V213.3333333333334zM106.6666666666667 213.3333333333334H42.6666666666667V149.3333333333334L67.1466666666667 173.8133333333333L117.3333333333333 123.5733333333334V42.6666666666667H138.6666666666667V132.4266666666667L82.1866666666667 188.8533333333334z" />
    <glyph glyph-name="ic_call_to_action_48px"
      unicode="&#xEA47;"
      horiz-adv-x="256" d=" M224 224H32C20.2666666666667 224 10.6666666666667 214.4 10.6666666666667 202.6666666666667V53.3333333333334C10.6666666666667 41.6 20.2666666666667 32 32 32H224C235.7333333333334 32 245.3333333333334 41.6 245.3333333333334 53.3333333333334V202.6666666666667C245.3333333333334 214.4 235.7333333333334 224 224 224zM224 53.3333333333333H32V85.3333333333333H224V53.3333333333333z" />
    <glyph glyph-name="ic_card_giftcard_48px"
      unicode="&#xEA48;"
      horiz-adv-x="256" d=" M213.3333333333333 192H190.0266666666667C191.2 195.36 192 198.9333333333333 192 202.6666666666667C192 220.32 177.6533333333333 234.6666666666667 160 234.6666666666667C148.8533333333333 234.6666666666667 139.04 228.96 133.3333333333333 220.32L128 213.0666666666667L122.6666666666667 220.32C116.96 228.96 107.1466666666667 234.6666666666667 96 234.6666666666667C78.3466666666667 234.6666666666667 64 220.32 64 202.6666666666667C64 198.9333333333333 64.7466666666667 195.36 65.9733333333333 192H42.6666666666667C30.88 192 21.44 182.4533333333334 21.44 170.6666666666667L21.3333333333333 53.3333333333333C21.3333333333333 41.5466666666667 30.88 32 42.6666666666667 32H213.3333333333333C225.12 32 234.6666666666667 41.5466666666667 234.6666666666667 53.3333333333333V170.6666666666667C234.6666666666667 182.4533333333333 225.12 192 213.3333333333333 192zM160 213.3333333333334C165.8666666666667 213.3333333333334 170.6666666666667 208.5333333333333 170.6666666666667 202.6666666666667S165.8666666666667 192 160 192S149.3333333333334 196.8 149.3333333333334 202.6666666666667S154.1333333333334 213.3333333333334 160 213.3333333333334zM96 213.3333333333334C101.8666666666667 213.3333333333334 106.6666666666667 208.5333333333333 106.6666666666667 202.6666666666667S101.8666666666667 192 96 192S85.3333333333333 196.8 85.3333333333333 202.6666666666667S90.1333333333333 213.3333333333334 96 213.3333333333334zM213.3333333333333 53.3333333333333H42.6666666666667V74.6666666666667H213.3333333333333V53.3333333333333zM213.3333333333333 106.6666666666667H42.6666666666667V170.6666666666667H96.8533333333333L74.6666666666667 140.4266666666667L92 128L117.3333333333333 162.5066666666667L128 177.0133333333333L138.6666666666667 162.5066666666667L164 128L181.3333333333333 140.4266666666667L159.1466666666667 170.6666666666667H213.3333333333333V106.6666666666667z" />
    <glyph glyph-name="ic_card_membership_48px"
      unicode="&#xEA49;"
      horiz-adv-x="256" d=" M213.3333333333333 234.6666666666667H42.6666666666667C30.88 234.6666666666667 21.3333333333333 225.12 21.3333333333333 213.3333333333334V96C21.3333333333333 84.2133333333333 30.88 74.6666666666667 42.6666666666667 74.6666666666667H85.3333333333333V21.3333333333333L128 42.6666666666667L170.6666666666667 21.3333333333333V74.6666666666667H213.3333333333333C225.12 74.6666666666667 234.6666666666667 84.2133333333334 234.6666666666667 96V213.3333333333334C234.6666666666667 225.12 225.12 234.6666666666667 213.3333333333333 234.6666666666667zM213.3333333333333 96H42.6666666666667V117.3333333333334H213.3333333333333V96zM213.3333333333333 149.3333333333333H42.6666666666667V213.3333333333334H213.3333333333333V149.3333333333334z" />
    <glyph glyph-name="ic_card_travel_48px"
      unicode="&#xEA4A;"
      horiz-adv-x="256" d=" M213.3333333333333 192H181.3333333333333V213.3333333333334C181.3333333333333 225.12 171.7866666666666 234.6666666666667 160 234.6666666666667H96C84.2133333333333 234.6666666666667 74.6666666666667 225.12 74.6666666666667 213.3333333333334V192H42.6666666666667C30.88 192 21.3333333333333 182.4533333333333 21.3333333333333 170.6666666666667V53.3333333333333C21.3333333333333 41.5466666666667 30.88 32 42.6666666666667 32H213.3333333333333C225.12 32 234.6666666666667 41.5466666666667 234.6666666666667 53.3333333333333V170.6666666666667C234.6666666666667 182.4533333333333 225.12 192 213.3333333333333 192zM96 213.3333333333334H160V192H96V213.3333333333334zM213.3333333333333 53.3333333333333H42.6666666666667V74.6666666666667H213.3333333333333V53.3333333333333zM213.3333333333333 106.6666666666667H42.6666666666667V170.6666666666667H74.6666666666667V149.3333333333334H96V170.6666666666667H160V149.3333333333334H181.3333333333334V170.6666666666667H213.3333333333334V106.6666666666667z" />
    <glyph glyph-name="ic_change_history_48px"
      unicode="&#xEA4B;"
      horiz-adv-x="256" d=" M128 173.0666666666667L196.16 64H59.84L128 173.0666666666667M128 213.3333333333334L21.3333333333333 42.6666666666667H234.6666666666667L128 213.3333333333334z" />
    <glyph glyph-name="ic_chat_48px"
      unicode="&#xEA4C;"
      horiz-adv-x="256" d=" M213.3333333333333 234.6666666666667H42.6666666666667C30.88 234.6666666666667 21.44 225.12 21.44 213.3333333333334L21.3333333333333 21.3333333333333L64 64H213.3333333333333C225.12 64 234.6666666666667 73.5466666666667 234.6666666666667 85.3333333333333V213.3333333333334C234.6666666666667 225.12 225.12 234.6666666666667 213.3333333333333 234.6666666666667zM64 160H192V138.6666666666667H64V160zM149.3333333333333 106.6666666666667H64V128H149.3333333333333V106.6666666666667zM192 170.6666666666667H64V192H192V170.6666666666667z" />
    <glyph glyph-name="ic_chat_bubble_48px"
      unicode="&#xEA4D;"
      horiz-adv-x="256" d=" M213.3333333333333 234.6666666666667H42.6666666666667C30.88 234.6666666666667 21.3333333333333 225.12 21.3333333333333 213.3333333333334V21.3333333333333L64 64H213.3333333333333C225.12 64 234.6666666666667 73.5466666666667 234.6666666666667 85.3333333333333V213.3333333333334C234.6666666666667 225.12 225.12 234.6666666666667 213.3333333333333 234.6666666666667z" />
    <glyph glyph-name="ic_chat_bubble_outline_48px"
      unicode="&#xEA4E;"
      horiz-adv-x="256" d=" M213.3333333333333 234.6666666666667H42.6666666666667C30.88 234.6666666666667 21.3333333333333 225.12 21.3333333333333 213.3333333333334V21.3333333333333L64 64H213.3333333333333C225.12 64 234.6666666666667 73.5466666666667 234.6666666666667 85.3333333333333V213.3333333333334C234.6666666666667 225.12 225.12 234.6666666666667 213.3333333333333 234.6666666666667zM213.3333333333333 85.3333333333333H64L42.6666666666667 64V213.3333333333334H213.3333333333333V85.3333333333333z" />
    <glyph glyph-name="ic_check_circle_48px"
      unicode="&#xEA4F;"
      horiz-adv-x="256" d=" M128 234.6666666666667C69.0666666666667 234.6666666666667 21.3333333333333 186.9333333333333 21.3333333333333 128C21.3333333333333 69.12 69.0666666666667 21.3333333333333 128 21.3333333333333C186.88 21.3333333333333 234.6666666666667 69.12 234.6666666666667 128C234.6666666666667 186.9333333333333 186.88 234.6666666666667 128 234.6666666666667zM106.6666666666667 74.6666666666667L53.3333333333333 128L68.4266666666667 143.0933333333333L106.6666666666667 104.8533333333334L187.5733333333333 185.76L202.6666666666667 170.6666666666667L106.6666666666667 74.6666666666667z" />
    <glyph glyph-name="ic_chrome_reader_mode_48px"
      unicode="&#xEA50;"
      horiz-adv-x="256" d=" M138.6666666666667 128H213.3333333333333V112H138.6666666666667zM138.6666666666667 154.6666666666667H213.3333333333333V138.6666666666667H138.6666666666667zM138.6666666666667 101.3333333333333H213.3333333333333V85.3333333333333H138.6666666666667zM224 213.3333333333334H32C20.2666666666667 213.3333333333334 10.6666666666667 203.7333333333334 10.6666666666667 192V53.3333333333333C10.6666666666667 41.6 20.2666666666667 32 32 32H224C235.7333333333334 32 245.3333333333334 41.6 245.3333333333334 53.3333333333333V192C245.3333333333334 203.7333333333334 235.7333333333334 213.3333333333333 224 213.3333333333333zM224 53.3333333333333H128V192H224V53.3333333333333z" />
    <glyph glyph-name="ic_class_48px"
      unicode="&#xEA51;"
      horiz-adv-x="256" d=" M192 234.6666666666667H64C52.2133333333333 234.6666666666667 42.6666666666667 225.12 42.6666666666667 213.3333333333334V42.6666666666667C42.6666666666667 30.88 52.2133333333333 21.3333333333333 64 21.3333333333333H192C203.7866666666667 21.3333333333333 213.3333333333334 30.88 213.3333333333334 42.6666666666667V213.3333333333334C213.3333333333334 225.12 203.7866666666667 234.6666666666667 192 234.6666666666667zM64 213.3333333333334H117.3333333333333V128L90.6666666666667 144L64 128V213.3333333333334z" />
    <glyph glyph-name="ic_clear_48px"
      unicode="&#xEA52;"
      horiz-adv-x="256" d=" M202.6666666666667 187.5733333333333L187.5733333333333 202.6666666666667L128 143.0933333333333L68.4266666666667 202.6666666666667L53.3333333333333 187.5733333333333L112.9066666666667 128L53.3333333333333 68.4266666666667L68.4266666666667 53.3333333333333L128 112.9066666666667L187.5733333333333 53.3333333333333L202.6666666666667 68.4266666666667L143.0933333333333 128z" />
    <glyph glyph-name="ic_clear_all_48px"
      unicode="&#xEA53;"
      horiz-adv-x="256" d=" M53.3333333333333 117.3333333333334H202.6666666666666V138.6666666666667H53.3333333333333V117.3333333333334zM32 74.6666666666667H181.3333333333333V96H32V74.6666666666667zM74.6666666666667 181.3333333333334V160H224V181.3333333333334H74.6666666666667z" />
    <glyph glyph-name="ic_closed_caption_48px"
      unicode="&#xEA54;"
      horiz-adv-x="256" d=" M202.6666666666667 213.3333333333334H53.3333333333333C41.5466666666667 213.3333333333334 32 203.7866666666667 32 192V64C32 52.2133333333333 41.5466666666667 42.6666666666667 53.3333333333333 42.6666666666667H202.6666666666666C214.4533333333333 42.6666666666667 224 52.2133333333333 224 64V192C224 203.7866666666667 214.4533333333333 213.3333333333333 202.6666666666666 213.3333333333333zM117.3333333333333 138.6666666666667H101.3333333333333V144H80V112H101.3333333333333V117.3333333333334H117.3333333333333V106.6666666666667C117.3333333333333 100.8 112.5866666666667 96 106.6666666666667 96H74.6666666666667C68.7466666666667 96 64 100.8 64 106.6666666666667V149.3333333333334C64 155.2 68.7466666666667 160 74.6666666666667 160H106.6666666666667C112.5866666666667 160 117.3333333333333 155.2 117.3333333333333 149.3333333333334V138.6666666666667zM192 138.6666666666667H176V144H154.6666666666667V112H176V117.3333333333334H192V106.6666666666667C192 100.8 187.2533333333333 96 181.3333333333334 96H149.3333333333334C143.4133333333334 96 138.6666666666667 100.8 138.6666666666667 106.6666666666667V149.3333333333334C138.6666666666667 155.2 143.4133333333334 160 149.3333333333334 160H181.3333333333334C187.2533333333333 160 192 155.2 192 149.3333333333334V138.6666666666667z" />
    <glyph glyph-name="ic_cloud_48px"
      unicode="&#xEA55;"
      horiz-adv-x="256" d=" M206.4533333333333 148.96C199.2 185.6533333333333 166.8266666666667 213.3333333333334 128 213.3333333333334C97.1733333333333 213.3333333333334 70.4533333333334 195.84 57.0666666666667 170.2933333333334C25.0133333333333 166.8266666666667 0 139.68 0 106.6666666666667C0 71.3066666666667 28.64 42.6666666666667 64 42.6666666666667H202.6666666666667C232.1066666666667 42.6666666666667 256 66.56 256 96C256 124.16 234.08 146.9866666666667 206.4533333333334 148.96z" />
    <glyph glyph-name="ic_cloud_circle_48px"
      unicode="&#xEA56;"
      horiz-adv-x="256" d=" M128 234.6666666666667C69.0666666666667 234.6666666666667 21.3333333333333 186.9333333333333 21.3333333333333 128S69.0666666666667 21.3333333333333 128 21.3333333333333S234.6666666666667 69.0666666666667 234.6666666666667 128S186.9333333333333 234.6666666666667 128 234.6666666666667zM176 85.3333333333333H85.3333333333333C67.68 85.3333333333333 53.3333333333333 99.68 53.3333333333333 117.3333333333334S67.68 149.3333333333334 85.3333333333333 149.3333333333334L86.7733333333333 149.1733333333334C91.52 167.6266666666667 108.1066666666667 181.3333333333334 128 181.3333333333334C151.5733333333333 181.3333333333334 170.6666666666667 162.24 170.6666666666667 138.6666666666667H176C190.72 138.6666666666667 202.6666666666667 126.72 202.6666666666667 112S190.72 85.3333333333334 176 85.3333333333334z" />
    <glyph glyph-name="ic_cloud_done_48px"
      unicode="&#xEA57;"
      horiz-adv-x="256" d=" M206.4533333333333 148.96C199.2 185.6533333333333 166.8266666666667 213.3333333333334 128 213.3333333333334C97.1733333333333 213.3333333333334 70.4533333333334 195.84 57.0666666666667 170.2933333333334C25.0133333333333 166.8266666666667 0 139.68 0 106.6666666666667C0 71.3066666666667 28.64 42.6666666666667 64 42.6666666666667H202.6666666666667C232.1066666666667 42.6666666666667 256 66.56 256 96C256 124.16 234.08 146.9866666666667 206.4533333333334 148.96zM106.6666666666667 74.6666666666667L69.3333333333333 112L84.4266666666667 127.0933333333333L106.6666666666667 104.8533333333334L161.8666666666667 160.0533333333334L176.96 144.96L106.6666666666667 74.6666666666667z" />
    <glyph glyph-name="ic_cloud_download_48px"
      unicode="&#xEA58;"
      horiz-adv-x="256" d=" M206.4533333333333 148.96C199.2 185.6533333333333 166.8266666666667 213.3333333333334 128 213.3333333333334C97.1733333333333 213.3333333333334 70.4533333333334 195.84 57.0666666666667 170.2933333333334C25.0133333333333 166.8266666666667 0 139.68 0 106.6666666666667C0 71.3066666666667 28.64 42.6666666666667 64 42.6666666666667H202.6666666666667C232.1066666666667 42.6666666666667 256 66.56 256 96C256 124.16 234.08 146.9866666666667 206.4533333333334 148.96zM181.3333333333333 117.3333333333334L128 64L74.6666666666667 117.3333333333334H106.6666666666667V160H149.3333333333333V117.3333333333334H181.3333333333333z" />
    <glyph glyph-name="ic_cloud_off_48px"
      unicode="&#xEA59;"
      horiz-adv-x="256" d=" M206.4533333333333 148.96C199.2 185.6533333333333 166.8266666666667 213.3333333333334 128 213.3333333333334C112.2666666666667 213.3333333333334 97.6 208.6933333333333 85.2266666666667 200.8533333333334L100.8 185.28C108.96 189.4933333333334 118.1866666666667 192 128 192C160.4266666666667 192 186.6666666666667 165.76 186.6666666666667 133.3333333333334V128H202.6666666666667C220.32 128 234.6666666666667 113.6533333333333 234.6666666666667 96C234.6666666666667 83.8933333333334 227.8933333333333 73.4933333333333 217.9733333333333 68.0533333333333L233.44 52.5866666666667C247.04 62.24 256 78.0266666666667 256 96C256 124.16 234.08 146.9866666666667 206.4533333333334 148.96zM32 199.7333333333334L61.3333333333333 170.5066666666667C27.3066666666667 169.0666666666667 0 141.0666666666667 0 106.6666666666667C0 71.3066666666667 28.64 42.6666666666667 64 42.6666666666667H189.0666666666667L210.4 21.3333333333333L224 34.88L45.6 213.3333333333334L32 199.7333333333334zM82.4 149.3333333333334L167.7333333333333 64H64C40.4266666666667 64 21.3333333333333 83.0933333333333 21.3333333333333 106.6666666666667S40.4266666666667 149.3333333333333 64 149.3333333333333H82.4z" />
    <glyph glyph-name="ic_cloud_queue_48px"
      unicode="&#xEA5A;"
      horiz-adv-x="256" d=" M206.4533333333333 148.96C199.2 185.6533333333333 166.8266666666667 213.3333333333334 128 213.3333333333334C97.1733333333333 213.3333333333334 70.4533333333334 195.84 57.0666666666667 170.2933333333334C25.0133333333333 166.8266666666667 0 139.68 0 106.6666666666667C0 71.3066666666667 28.64 42.6666666666667 64 42.6666666666667H202.6666666666667C232.1066666666667 42.6666666666667 256 66.56 256 96C256 124.16 234.08 146.9866666666667 206.4533333333334 148.96zM202.6666666666667 64H64C40.4266666666667 64 21.3333333333333 83.0933333333333 21.3333333333333 106.6666666666667S40.4266666666667 149.3333333333333 64 149.3333333333333H71.5733333333333C78.56 173.92 101.12 192 128 192C160.4266666666667 192 186.6666666666667 165.76 186.6666666666667 133.3333333333333V128H202.6666666666667C220.32 128 234.6666666666667 113.6533333333333 234.6666666666667 96S220.32 64 202.6666666666667 64z" />
    <glyph glyph-name="ic_cloud_upload_48px"
      unicode="&#xEA5B;"
      horiz-adv-x="256" d=" M206.4533333333333 148.96C199.2 185.6533333333333 166.8266666666667 213.3333333333334 128 213.3333333333334C97.1733333333333 213.3333333333334 70.4533333333334 195.84 57.0666666666667 170.2933333333334C25.0133333333333 166.8266666666667 0 139.68 0 106.6666666666667C0 71.3066666666667 28.64 42.6666666666667 64 42.6666666666667H202.6666666666667C232.1066666666667 42.6666666666667 256 66.56 256 96C256 124.16 234.08 146.9866666666667 206.4533333333334 148.96zM149.3333333333333 117.3333333333334V74.6666666666667H106.6666666666667V117.3333333333334H74.6666666666667L128 170.6666666666667L181.3333333333333 117.3333333333334H149.3333333333333z" />
    <glyph glyph-name="ic_code_48px"
      unicode="&#xEA5C;"
      horiz-adv-x="256" d=" M100.2666666666667 78.9333333333333L51.7333333333333 128L100.8 177.0666666666667L85.3333333333333 192L21.3333333333333 128L85.3333333333333 64L100.2666666666667 78.9333333333333zM155.7333333333334 78.9333333333333L204.8 128L155.7333333333334 177.0666666666667L170.6666666666667 192L234.6666666666667 128L170.6666666666667 64L155.7333333333333 78.9333333333333z" />
    <glyph glyph-name="ic_comment_48px"
      unicode="&#xEA5D;"
      horiz-adv-x="256" d=" M234.56 213.3333333333334C234.56 225.12 225.12 234.6666666666667 213.3333333333333 234.6666666666667H42.6666666666667C30.88 234.6666666666667 21.3333333333333 225.12 21.3333333333333 213.3333333333334V85.3333333333333C21.3333333333333 73.5466666666667 30.88 64 42.6666666666667 64H192L234.6666666666667 21.3333333333333L234.56 213.3333333333334zM192 106.6666666666667H64V128H192V106.6666666666667zM192 138.6666666666667H64V160H192V138.6666666666667zM192 170.6666666666667H64V192H192V170.6666666666667z" />
    <glyph glyph-name="ic_compare_arrows_48px"
      unicode="&#xEA5E;"
      horiz-adv-x="256" d=" M96.1066666666667 106.6666666666667H21.3333333333333V85.3333333333333H96.1066666666667V53.3333333333333L138.6666666666667 96L96.1066666666667 138.6666666666667V106.6666666666667zM159.8933333333333 117.3333333333334V149.3333333333334H234.6666666666667V170.6666666666667H159.8933333333333V202.6666666666667L117.3333333333333 160L159.8933333333333 117.3333333333334z" />
    <glyph glyph-name="ic_contact_mail_48px"
      unicode="&#xEA5F;"
      horiz-adv-x="256" d=" M224 170.6666666666667V181.3333333333334L192 160L160 181.3333333333334V170.6666666666667L192 149.3333333333334L224 170.6666666666667zM234.6666666666667 224H21.3333333333333C9.5466666666667 224 0 214.4533333333333 0 202.6666666666667V53.3333333333334C0 41.5466666666667 9.5466666666667 32 21.3333333333333 32H234.6666666666667C246.4533333333333 32 255.8933333333333 41.5466666666667 255.8933333333333 53.3333333333334L256 202.6666666666667C256 214.4533333333333 246.4533333333333 224 234.6666666666667 224zM85.3333333333333 192C102.9866666666667 192 117.3333333333334 177.6533333333333 117.3333333333334 160C117.3333333333334 142.2933333333334 102.9866666666667 128 85.3333333333333 128S53.3333333333333 142.2933333333334 53.3333333333333 160C53.3333333333333 177.6533333333333 67.68 192 85.3333333333333 192zM149.3333333333334 64H21.3333333333333V74.6666666666667C21.3333333333333 96 64 107.7333333333333 85.3333333333333 107.7333333333333S149.3333333333333 96 149.3333333333333 74.6666666666667V64zM234.6666666666667 128H149.3333333333333V192H234.6666666666667V128z" />
    <glyph glyph-name="ic_contact_phone_48px"
      unicode="&#xEA60;"
      horiz-adv-x="256" d=" M234.6666666666667 224H21.3333333333333C9.5466666666667 224 0 214.4533333333333 0 202.6666666666667V53.3333333333334C0 41.5466666666667 9.5466666666667 32 21.3333333333333 32H234.6666666666667C246.4533333333333 32 255.8933333333333 41.5466666666667 255.8933333333333 53.3333333333334L256 202.6666666666667C256 214.4533333333333 246.4533333333333 224 234.6666666666667 224zM85.3333333333333 192C102.9866666666667 192 117.3333333333334 177.6533333333333 117.3333333333334 160C117.3333333333334 142.2933333333334 102.9866666666667 128 85.3333333333333 128S53.3333333333333 142.2933333333334 53.3333333333333 160C53.3333333333333 177.6533333333333 67.68 192 85.3333333333333 192zM149.3333333333334 64H21.3333333333333V74.6666666666667C21.3333333333333 96 64 107.7333333333333 85.3333333333333 107.7333333333333S149.3333333333333 96 149.3333333333333 74.6666666666667V64zM190.4 106.6666666666667H207.8933333333334L224 85.3333333333333L202.72 64.0533333333333C188.8 74.5066666666667 178.4 89.3866666666667 173.6 106.6666666666667C171.7333333333333 113.4933333333334 170.6666666666667 120.5866666666667 170.6666666666667 128S171.7333333333333 142.5066666666667 173.6533333333333 149.3333333333334C178.4 166.6133333333334 188.8 181.4933333333334 202.7733333333334 191.9466666666667L224 170.6666666666667L207.8933333333334 149.3333333333334H190.4C188.0533333333334 142.6666666666667 186.6666666666667 135.4666666666667 186.6666666666667 128S188 113.3333333333334 190.4 106.6666666666667z" />
    <glyph glyph-name="ic_contacts_48px"
      unicode="&#xEA61;"
      horiz-adv-x="256" d=" M213.3333333333333 256H42.6666666666667V234.6666666666667H213.3333333333333V256zM42.6666666666667 0H213.3333333333333V21.3333333333333H42.6666666666667V0zM213.3333333333333 213.3333333333334H42.6666666666667C30.88 213.3333333333334 21.3333333333333 203.7866666666667 21.3333333333333 192V64C21.3333333333333 52.2133333333333 30.88 42.6666666666667 42.6666666666667 42.6666666666667H213.3333333333333C225.12 42.6666666666667 234.6666666666667 52.2133333333333 234.6666666666667 64V192C234.6666666666667 203.7866666666667 225.12 213.3333333333333 213.3333333333333 213.3333333333333zM128 184C141.2266666666667 184 152 173.2266666666667 152 160C152 146.72 141.2266666666667 136 128 136S104 146.72 104 160C104 173.2266666666667 114.7733333333334 184 128 184zM181.3333333333333 74.6666666666667H74.6666666666667V90.6666666666667C74.6666666666667 108.4266666666667 110.24 117.3333333333334 128 117.3333333333334S181.3333333333333 108.4266666666667 181.3333333333333 90.6666666666667V74.6666666666667z" />
    <glyph glyph-name="ic_content_copy_48px"
      unicode="&#xEA62;"
      horiz-adv-x="256" d=" M170.6666666666667 245.3333333333334H42.6666666666667C30.88 245.3333333333334 21.3333333333333 235.7866666666667 21.3333333333333 224V74.6666666666667H42.6666666666667V224H170.6666666666667V245.3333333333334zM202.6666666666667 202.6666666666667H85.3333333333333C73.5466666666667 202.6666666666667 64 193.12 64 181.3333333333334V32C64 20.2133333333334 73.5466666666667 10.6666666666667 85.3333333333333 10.6666666666667H202.6666666666667C214.4533333333333 10.6666666666667 224 20.2133333333334 224 32V181.3333333333334C224 193.12 214.4533333333333 202.6666666666667 202.6666666666667 202.6666666666667zM202.6666666666667 32H85.3333333333333V181.3333333333334H202.6666666666667V32z" />
    <glyph glyph-name="ic_content_cut_48px"
      unicode="&#xEA64;"
      horiz-adv-x="256" d=" M102.8266666666667 174.5066666666667C105.2266666666667 179.84 106.6666666666667 185.76 106.6666666666667 192C106.6666666666667 215.5733333333333 87.5733333333333 234.6666666666667 64 234.6666666666667S21.3333333333333 215.5733333333333 21.3333333333333 192S40.4266666666667 149.3333333333334 64 149.3333333333334C70.24 149.3333333333334 76.16 150.7733333333334 81.4933333333333 153.1733333333334L106.6666666666667 128L81.4933333333333 102.8266666666667C76.16 105.2266666666667 70.24 106.6666666666667 64 106.6666666666667C40.4266666666667 106.6666666666667 21.3333333333333 87.5733333333333 21.3333333333333 64S40.4266666666667 21.3333333333333 64 21.3333333333333S106.6666666666667 40.4266666666667 106.6666666666667 64C106.6666666666667 70.24 105.2266666666667 76.16 102.8266666666667 81.4933333333333L128 106.6666666666667L202.6666666666667 32H234.6666666666667V42.6666666666667L102.8266666666667 174.5066666666667zM64 170.6666666666667C52.2133333333333 170.6666666666667 42.6666666666667 180.2133333333334 42.6666666666667 192S52.2133333333333 213.3333333333333 64 213.3333333333333S85.3333333333333 203.7866666666667 85.3333333333333 192S75.7866666666667 170.6666666666667 64 170.6666666666667zM64 42.6666666666667C52.2133333333333 42.6666666666667 42.6666666666667 52.2133333333334 42.6666666666667 64S52.2133333333333 85.3333333333334 64 85.3333333333334S85.3333333333333 75.7866666666667 85.3333333333333 64S75.7866666666667 42.6666666666667 64 42.6666666666667zM128 122.6666666666667C125.0666666666667 122.6666666666667 122.6666666666667 125.0666666666667 122.6666666666667 128S125.0666666666667 133.3333333333334 128 133.3333333333334S133.3333333333334 130.9333333333333 133.3333333333334 128S130.9333333333333 122.6666666666667 128 122.6666666666667zM202.6666666666667 224L138.6666666666667 160L160 138.6666666666667L234.6666666666667 213.3333333333334V224z" />
    <glyph glyph-name="ic_content_paste_48px"
      unicode="&#xEA63;"
      horiz-adv-x="256" d=" M202.6666666666667 234.6666666666667H158.0266666666667C153.6533333333333 247.04 141.92 256 128 256S102.3466666666667 247.04 97.9733333333333 234.6666666666667H53.3333333333333C41.5466666666667 234.6666666666667 32 225.12 32 213.3333333333334V42.6666666666667C32 30.88 41.5466666666667 21.3333333333333 53.3333333333333 21.3333333333333H202.6666666666666C214.4533333333333 21.3333333333333 224 30.88 224 42.6666666666667V213.3333333333334C224 225.12 214.4533333333333 234.6666666666667 202.6666666666666 234.6666666666667zM128 234.6666666666667C133.8666666666667 234.6666666666667 138.6666666666667 229.92 138.6666666666667 224S133.8666666666667 213.3333333333334 128 213.3333333333334S117.3333333333333 218.08 117.3333333333333 224S122.1333333333333 234.6666666666667 128 234.6666666666667zM202.6666666666667 42.6666666666667H53.3333333333333V213.3333333333334H74.6666666666667V181.3333333333334H181.3333333333333V213.3333333333334H202.6666666666667V42.6666666666667z" />
    </font>
</defs>
</svg>
